<svg width="24" height="24" viewBox="0 0 24 24" fill="none" xmlns="http://www.w3.org/2000/svg">
<path d="M16 0C20.4183 0 24 3.58172 24 8V16C24 20.4183 20.4183 24 16 24H8C3.58172 24 0 20.4183 0 16V8C0 3.58172 3.58172 0 8 0H16Z" fill="#0075FF" fill-opacity="0.2"/>
<path d="M16 0C20.4183 0 24 3.58172 24 8V16C24 20.4183 20.4183 24 16 24H8C3.58172 24 0 20.4183 0 16V8C0 3.58172 3.58172 0 8 0H16Z" stroke="#E5E7EB"/>
<path d="M19.5 20H4.5V4H19.5V20Z" stroke="#E5E7EB"/>
<g clip-path="url(#clip0_2340_662)">
<path d="M8.51484 7.75H9.75V10H7.10859L7.82109 8.22109C7.93359 7.9375 8.20781 7.75 8.51484 7.75ZM10.875 10V7.75H12.7781C13.0055 7.75 13.2211 7.85312 13.3641 8.03125L14.9391 10H10.875ZM16.8797 10.0234L14.5359 7.09375C14.1094 6.55938 13.4625 6.25 12.7781 6.25H8.51484C7.59375 6.25 6.76641 6.81016 6.42656 7.66328L5.45156 10.1031C4.89375 10.3234 4.5 10.8648 4.5 11.5V14.125C4.5 14.5398 4.83516 14.875 5.25 14.875H6.03047C6.20859 15.9391 7.13438 16.75 8.25 16.75C9.36562 16.75 10.2914 15.9391 10.4695 14.875H13.5305C13.7086 15.9391 14.6344 16.75 15.75 16.75C16.8656 16.75 17.7914 15.9391 17.9695 14.875H18.75C19.1648 14.875 19.5 14.5398 19.5 14.125V13C19.5 11.4719 18.3563 10.2109 16.8797 10.0234ZM14.6883 14.125C14.736 13.9838 14.8113 13.8535 14.9099 13.7417C15.0084 13.6299 15.1282 13.5387 15.2622 13.4736C15.3963 13.4084 15.5419 13.3705 15.6907 13.3622C15.8395 13.3538 15.9885 13.3751 16.129 13.4247C16.2695 13.4744 16.3988 13.5515 16.5093 13.6516C16.6197 13.7516 16.7092 13.8727 16.7725 14.0076C16.8358 14.1425 16.8716 14.2887 16.878 14.4376C16.8843 14.5865 16.861 14.7352 16.8094 14.875C16.7616 15.0162 16.6863 15.1465 16.5878 15.2583C16.4893 15.3701 16.3695 15.4613 16.2354 15.5264C16.1014 15.5916 15.9557 15.6295 15.8069 15.6378C15.6581 15.6462 15.5091 15.6249 15.3686 15.5753C15.2281 15.5256 15.0989 15.4485 14.9884 15.3484C14.8779 15.2484 14.7885 15.1273 14.7252 14.9924C14.6619 14.8575 14.626 14.7113 14.6197 14.5624C14.6133 14.4135 14.6367 14.2648 14.6883 14.125ZM8.25 13.375C8.54837 13.375 8.83452 13.4935 9.0455 13.7045C9.25647 13.9155 9.375 14.2016 9.375 14.5C9.375 14.7984 9.25647 15.0845 9.0455 15.2955C8.83452 15.5065 8.54837 15.625 8.25 15.625C7.95163 15.625 7.66548 15.5065 7.4545 15.2955C7.24353 15.0845 7.125 14.7984 7.125 14.5C7.125 14.2016 7.24353 13.9155 7.4545 13.7045C7.66548 13.4935 7.95163 13.375 8.25 13.375Z" fill="#0075FF"/>
</g>
<defs>
<clipPath id="clip0_2340_662">
<path d="M4.5 5.5H19.5V17.5H4.5V5.5Z" fill="white"/>
</clipPath>
</defs>
</svg>
