<svg width="40" height="20" viewBox="0 0 40 20" fill="none" xmlns="http://www.w3.org/2000/svg">
<path d="M39.5 20H0V0H39.5V20Z" stroke="#E5E7EB"/>
<path d="M15.75 20H0V0H15.75V20Z" stroke="#E5E7EB"/>
<path d="M15.75 18H0V1H15.75V18Z" stroke="#E5E7EB"/>
<g clip-path="url(#clip0_2340_716)">
<path d="M7.87529 3.625C5.66592 3.625 3.89678 4.63125 2.60889 5.82891C1.3292 7.01562 0.47334 8.4375 0.0686523 9.41367C-0.021582 9.62969 -0.021582 9.87031 0.0686523 10.0863C0.47334 11.0625 1.3292 12.4844 2.60889 13.6711C3.89678 14.8687 5.66592 15.875 7.87529 15.875C10.0847 15.875 11.8538 14.8687 13.1417 13.6711C14.4214 12.4816 15.2772 11.0625 15.6847 10.0863C15.7749 9.87031 15.7749 9.62969 15.6847 9.41367C15.2772 8.4375 14.4214 7.01562 13.1417 5.82891C11.8538 4.63125 10.0847 3.625 7.87529 3.625ZM3.93779 9.75C3.93779 8.70571 4.35264 7.70419 5.09106 6.96577C5.82948 6.22734 6.831 5.8125 7.87529 5.8125C8.91958 5.8125 9.9211 6.22734 10.6595 6.96577C11.398 7.70419 11.8128 8.70571 11.8128 9.75C11.8128 10.7943 11.398 11.7958 10.6595 12.5342C9.9211 13.2727 8.91958 13.6875 7.87529 13.6875C6.831 13.6875 5.82948 13.2727 5.09106 12.5342C4.35264 11.7958 3.93779 10.7943 3.93779 9.75ZM7.87529 8C7.87529 8.96523 7.09053 9.75 6.12529 9.75C5.93115 9.75 5.74521 9.71719 5.57021 9.65977C5.41982 9.61055 5.24482 9.70352 5.25029 9.86211C5.2585 10.0508 5.28584 10.2395 5.33779 10.4281C5.7124 11.8281 7.15342 12.6594 8.55342 12.2848C9.95342 11.9102 10.7847 10.4691 10.4101 9.06914C10.1065 7.93438 9.10303 7.17148 7.9874 7.125C7.82881 7.11953 7.73584 7.2918 7.78506 7.44492C7.84248 7.61992 7.87529 7.80586 7.87529 8Z" fill="#0075FF"/>
</g>
<path d="M39.5 20H23.75V0H39.5V20Z" stroke="#E5E7EB"/>
<path d="M39.5 18H23.75V1H39.5V18Z" stroke="#E5E7EB"/>
<g clip-path="url(#clip1_2340_716)">
<path d="M30.75 3.625C30.266 3.625 29.875 4.01602 29.875 4.5V4.56289V7.28633C29.875 7.43945 29.752 7.5625 29.5988 7.5625C29.5004 7.5625 29.4074 7.51055 29.3582 7.42305L28.0457 5.12891C26.0195 6.12695 24.625 8.21328 24.625 10.625V12.375H38.625V10.5594C38.6004 8.175 37.2113 6.11875 35.2043 5.12891L33.8918 7.42305C33.8426 7.51055 33.7496 7.5625 33.6512 7.5625C33.498 7.5625 33.375 7.43945 33.375 7.28633V4.56289V4.5C33.375 4.01602 32.984 3.625 32.5 3.625H30.75ZM24.2039 13.25C23.9523 13.25 23.75 13.4523 23.75 13.7039C23.75 13.8324 23.8047 13.9555 23.9086 14.0293C24.502 14.4641 26.807 15.875 31.625 15.875C36.443 15.875 38.748 14.4641 39.3414 14.0293C39.4453 13.9527 39.5 13.8324 39.5 13.7039C39.5 13.4523 39.2977 13.25 39.0461 13.25H24.2039Z" fill="#8B5CF6"/>
</g>
<defs>
<clipPath id="clip0_2340_716">
<path d="M0 2.75H15.75V16.75H0V2.75Z" fill="white"/>
</clipPath>
<clipPath id="clip1_2340_716">
<path d="M23.75 2.75H39.5V16.75H23.75V2.75Z" fill="white"/>
</clipPath>
</defs>
</svg>
