<svg width="24" height="24" viewBox="0 0 24 24" fill="none" xmlns="http://www.w3.org/2000/svg">
<path d="M16 0C20.4183 0 24 3.58172 24 8V16C24 20.4183 20.4183 24 16 24H8C3.58172 24 0 20.4183 0 16V8C0 3.58172 3.58172 0 8 0H16Z" fill="#8B5CF6" fill-opacity="0.2"/>
<path d="M16 0C20.4183 0 24 3.58172 24 8V16C24 20.4183 20.4183 24 16 24H8C3.58172 24 0 20.4183 0 16V8C0 3.58172 3.58172 0 8 0H16Z" stroke="#E5E7EB"/>
<path d="M19.5 20H4.5V4H19.5V20Z" stroke="#E5E7EB"/>
<g clip-path="url(#clip0_2340_671)">
<path d="M13.1391 7.75L14.9391 10H11.25V7.75H13.1391ZM9.75 7.375V10H6C5.58516 10 5.25 10.3352 5.25 10.75V12.25C4.83516 12.25 4.5 12.5852 4.5 13C4.5 13.4148 4.83516 13.75 5.25 13.75H6.02578C6.00937 13.8719 6 13.9984 6 14.125C6 15.5758 7.17422 16.75 8.625 16.75C10.0758 16.75 11.25 15.5758 11.25 14.125C11.25 13.9984 11.2406 13.8719 11.2242 13.75H12.7781C12.7617 13.8719 12.7523 13.9984 12.7523 14.125C12.7523 15.5758 13.9266 16.75 15.3773 16.75C16.8281 16.75 18.0023 15.5758 18.0023 14.125C18.0023 13.9984 17.993 13.8719 17.9766 13.75H18.75C19.1648 13.75 19.5 13.4148 19.5 13C19.5 12.5852 19.1648 12.25 18.75 12.25V10.75C18.75 10.3352 18.4148 10 18 10H16.8609L14.3109 6.8125C14.0273 6.45625 13.5961 6.25 13.1391 6.25H10.875C10.2539 6.25 9.75 6.75391 9.75 7.375ZM9.75 14.125C9.75 14.2727 9.7209 14.419 9.66436 14.5555C9.60783 14.692 9.52496 14.816 9.4205 14.9205C9.31603 15.025 9.19201 15.1078 9.05552 15.1644C8.91903 15.2209 8.77274 15.25 8.625 15.25C8.47726 15.25 8.33097 15.2209 8.19448 15.1644C8.05799 15.1078 7.93397 15.025 7.8295 14.9205C7.72504 14.816 7.64217 14.692 7.58564 14.5555C7.5291 14.419 7.5 14.2727 7.5 14.125C7.5 13.9773 7.5291 13.831 7.58564 13.6945C7.64217 13.558 7.72504 13.434 7.8295 13.3295C7.93397 13.225 8.05799 13.1422 8.19448 13.0856C8.33097 13.0291 8.47726 13 8.625 13C8.77274 13 8.91903 13.0291 9.05552 13.0856C9.19201 13.1422 9.31603 13.225 9.4205 13.3295C9.52496 13.434 9.60783 13.558 9.66436 13.6945C9.7209 13.831 9.75 13.9773 9.75 14.125ZM16.5 14.125C16.5 14.4234 16.3815 14.7095 16.1705 14.9205C15.9595 15.1315 15.6734 15.25 15.375 15.25C15.0766 15.25 14.7905 15.1315 14.5795 14.9205C14.3685 14.7095 14.25 14.4234 14.25 14.125C14.25 13.8266 14.3685 13.5405 14.5795 13.3295C14.7905 13.1185 15.0766 13 15.375 13C15.6734 13 15.9595 13.1185 16.1705 13.3295C16.3815 13.5405 16.5 13.8266 16.5 14.125Z" fill="#8B5CF6"/>
</g>
<defs>
<clipPath id="clip0_2340_671">
<path d="M4.5 5.5H19.5V17.5H4.5V5.5Z" fill="white"/>
</clipPath>
</defs>
</svg>
