<svg width="24" height="24" viewBox="0 0 24 24" fill="none" xmlns="http://www.w3.org/2000/svg">
<path d="M16 0C20.4183 0 24 3.58172 24 8V16C24 20.4183 20.4183 24 16 24H8C3.58172 24 0 20.4183 0 16V8C0 3.58172 3.58172 0 8 0H16Z" fill="#10B981" fill-opacity="0.2"/>
<path d="M16 0C20.4183 0 24 3.58172 24 8V16C24 20.4183 20.4183 24 16 24H8C3.58172 24 0 20.4183 0 16V8C0 3.58172 3.58172 0 8 0H16Z" stroke="#E5E7EB"/>
<path d="M19.5 20H4.5V4H19.5V20Z" stroke="#E5E7EB"/>
<g clip-path="url(#clip0_2340_668)">
<path d="M11.0625 6.2499C10.7508 6.2499 10.5 6.50068 10.5 6.8124C10.5 7.12412 10.7508 7.3749 11.0625 7.3749H12.4148L12.7992 8.08506L10.5 9.9999L9.43828 8.93818C9.15703 8.65693 8.775 8.4999 8.37656 8.4999H6C5.58516 8.4999 5.25 8.83506 5.25 9.2499V9.9999H7.5C9.57188 9.9999 11.25 11.678 11.25 13.7499C11.25 14.0077 11.2242 14.2585 11.175 14.4999H12.825C12.7758 14.2585 12.75 14.0077 12.75 13.7499C12.75 12.5265 13.3359 11.439 14.243 10.7546L14.6039 11.4249C13.9313 11.9757 13.5 12.8124 13.5 13.7499C13.5 15.4069 14.843 16.7499 16.5 16.7499C18.157 16.7499 19.5 15.4069 19.5 13.7499C19.5 12.0929 18.157 10.7499 16.5 10.7499C16.1836 10.7499 15.8789 10.7991 15.593 10.8905L14.3016 8.4999H15.75C16.1648 8.4999 16.5 8.16475 16.5 7.7499V6.9999C16.5 6.58506 16.1648 6.2499 15.75 6.2499H15.2719C15.0961 6.2499 14.9273 6.31084 14.7914 6.42334L13.6805 7.34912L13.3523 6.73975C13.1883 6.4374 12.8719 6.24756 12.5273 6.24756H11.0625V6.2499ZM15.3445 12.7937L16.0055 14.0171C16.1531 14.2913 16.4953 14.3921 16.7672 14.2444C17.0391 14.0968 17.1422 13.7546 16.9945 13.4827L16.3336 12.2593C16.3875 12.2522 16.4438 12.2499 16.5 12.2499C17.3273 12.2499 18 12.9226 18 13.7499C18 14.5772 17.3273 15.2499 16.5 15.2499C15.6727 15.2499 15 14.5772 15 13.7499C15 13.3866 15.1289 13.0538 15.3445 12.7937ZM8.88984 14.3124C8.66719 14.8632 8.12812 15.2499 7.5 15.2499C6.67266 15.2499 6 14.5772 6 13.7499C6 12.9226 6.67266 12.2499 7.5 12.2499C8.13047 12.2499 8.66953 12.6366 8.88984 13.1874H10.4461C10.1836 11.7999 8.96484 10.7499 7.5 10.7499C5.84297 10.7499 4.5 12.0929 4.5 13.7499C4.5 15.4069 5.84297 16.7499 7.5 16.7499C8.96484 16.7499 10.1836 15.6999 10.4484 14.3124H8.88984ZM7.5 14.4999C7.69891 14.4999 7.88968 14.4209 8.03033 14.2802C8.17098 14.1396 8.25 13.9488 8.25 13.7499C8.25 13.551 8.17098 13.3602 8.03033 13.2196C7.88968 13.0789 7.69891 12.9999 7.5 12.9999C7.30109 12.9999 7.11032 13.0789 6.96967 13.2196C6.82902 13.3602 6.75 13.551 6.75 13.7499C6.75 13.9488 6.82902 14.1396 6.96967 14.2802C7.11032 14.4209 7.30109 14.4999 7.5 14.4999Z" fill="#10B981"/>
</g>
<defs>
<clipPath id="clip0_2340_668">
<path d="M4.5 5.5H19.5V17.5H4.5V5.5Z" fill="white"/>
</clipPath>
</defs>
</svg>
