<svg width="24" height="32" viewBox="0 0 24 32" fill="none" xmlns="http://www.w3.org/2000/svg">
<g opacity="0.8">
<path d="M24 32H0V0H24V32Z" stroke="#E5E7EB"/>
<path d="M24 27H0V3H24V27Z" stroke="#E5E7EB"/>
<path d="M12.6281 3.13594C12.4313 3.04688 12.2203 3 12 3C11.7797 3 11.5688 3.04688 11.3719 3.13594L2.54533 6.88125C1.51408 7.31719 0.745334 8.33438 0.750021 9.5625C0.773459 14.2125 2.68596 22.7203 10.7625 26.5875C11.5453 26.9625 12.4547 26.9625 13.2375 26.5875C21.3141 22.7203 23.2266 14.2125 23.25 9.5625C23.2547 8.33438 22.486 7.31719 21.4547 6.88125L12.6281 3.13594ZM6.75002 13.3734C6.75002 11.7891 8.0344 10.5 9.62346 10.5C10.3828 10.5 11.1141 10.8047 11.6531 11.3391L12 11.6859L12.3469 11.3391C12.886 10.8 13.6172 10.5 14.3766 10.5C15.961 10.5 17.25 11.7844 17.25 13.3734C17.25 14.1328 16.9453 14.8641 16.411 15.4031L12.5344 19.2797C12.2438 19.5703 11.7656 19.5703 11.475 19.2797L7.59846 15.4031C7.0594 14.8641 6.7594 14.1328 6.7594 13.3734H6.75002Z" fill="white"/>
</g>
</svg>
