<svg width="12" height="24" viewBox="0 0 12 24" fill="none" xmlns="http://www.w3.org/2000/svg">
<path d="M12 24H0V0H12V24Z" stroke="#E5E7EB"/>
<path d="M12 21H0V6H12V21Z" stroke="#E5E7EB"/>
<path d="M12 19.5H0V7.5H12V19.5Z" stroke="#E5E7EB"/>
<path d="M5.47012 17.0295C5.76309 17.3225 6.23887 17.3225 6.53184 17.0295L11.0318 12.5295C11.3248 12.2365 11.3248 11.7607 11.0318 11.4678C10.7389 11.1748 10.2631 11.1748 9.97012 11.4678L5.9998 15.4381L2.02949 11.4701C1.73652 11.1771 1.26074 11.1771 0.967773 11.4701C0.674805 11.7631 0.674805 12.2389 0.967773 12.5318L5.46777 17.0318L5.47012 17.0295Z" fill="#64748B"/>
</svg>
