<svg width="18" height="28" viewBox="0 0 18 28" fill="none" xmlns="http://www.w3.org/2000/svg">
<path d="M17.5 28H0V0H17.5V28Z" stroke="#E5E7EB"/>
<path d="M17.5 26H0V2H17.5V26Z" stroke="#E5E7EB"/>
<g clip-path="url(#clip0_2340_36)">
<path d="M0 7.25C0 6.55859 0.558594 6 1.25 6H16.25C16.9414 6 17.5 6.55859 17.5 7.25C17.5 7.94141 16.9414 8.5 16.25 8.5H1.25C0.558594 8.5 0 7.94141 0 7.25ZM0 13.5C0 12.8086 0.558594 12.25 1.25 12.25H16.25C16.9414 12.25 17.5 12.8086 17.5 13.5C17.5 14.1914 16.9414 14.75 16.25 14.75H1.25C0.558594 14.75 0 14.1914 0 13.5ZM17.5 19.75C17.5 20.4414 16.9414 21 16.25 21H1.25C0.558594 21 0 20.4414 0 19.75C0 19.0586 0.558594 18.5 1.25 18.5H16.25C16.9414 18.5 17.5 19.0586 17.5 19.75Z" fill="#475569"/>
</g>
<defs>
<clipPath id="clip0_2340_36">
<path d="M0 3.5H17.5V23.5H0V3.5Z" fill="white"/>
</clipPath>
</defs>
</svg>
