<svg width="50" height="59" viewBox="0 0 50 59" fill="none" xmlns="http://www.w3.org/2000/svg">
<path d="M22.997 14.9964C29.625 14.9964 34.998 20.3694 34.998 26.9974V46.999C34.998 53.627 29.625 59 22.997 59H13.4962C6.86827 59 1.49524 53.627 1.49524 46.999V26.9974C1.49524 20.3694 6.86827 14.9964 13.4962 14.9964H22.997Z" stroke="#E5E7EB"/>
<path d="M26.9974 48.9992H9.4959V24.9972H26.9974V48.9992Z" stroke="#E5E7EB"/>
<g clip-path="url(#clip0_2340_106)">
<path d="M18.2467 26.4973C17.5553 26.4973 16.9966 27.056 16.9966 27.7474V28.4467C14.1644 28.8959 11.9962 31.3493 11.9962 34.3105V35.6153C11.9962 37.3888 11.3907 39.1116 10.2851 40.4946L9.70305 41.2251C9.47647 41.5064 9.4335 41.8931 9.58976 42.2174C9.74603 42.5416 10.0742 42.7487 10.4336 42.7487H26.0599C26.4193 42.7487 26.7474 42.5416 26.9037 42.2174C27.06 41.8931 27.017 41.5064 26.7904 41.2251L26.2083 40.4985C25.1028 39.1116 24.4972 37.3888 24.4972 35.6153V34.3105C24.4972 31.3493 22.3291 28.8959 19.4968 28.4467V27.7474C19.4968 27.056 18.9382 26.4973 18.2467 26.4973ZM18.2467 30.2476H18.5593C20.8016 30.2476 22.6221 32.0681 22.6221 34.3105V35.6153C22.6221 37.4865 23.1651 39.3109 24.173 40.8735H12.3205C13.3284 39.3109 13.8714 37.4865 13.8714 35.6153V34.3105C13.8714 32.0681 15.6918 30.2476 17.9342 30.2476H18.2467ZM20.7469 43.9988H18.2467H15.7465C15.7465 44.6629 16.0083 45.2996 16.4771 45.7684C16.9458 46.2372 17.5826 46.499 18.2467 46.499C18.9108 46.499 19.5476 46.2372 20.0164 45.7684C20.4852 45.2996 20.7469 44.6629 20.7469 43.9988Z" fill="#64748B"/>
</g>
<g filter="url(#filter0_d_2340_106)">
<path d="M18.9967 24.9972C18.9967 21.6832 21.6832 18.9967 24.9972 18.9967C28.3112 18.9967 30.9977 21.6832 30.9977 24.9972C30.9977 28.3112 28.3112 30.9977 24.9972 30.9977C21.6832 30.9977 18.9967 28.3112 18.9967 24.9972Z" fill="#EF4444"/>
</g>
<defs>
<filter id="filter0_d_2340_106" x="-0.000183121" y="-0.000183121" width="49.9947" height="49.9947" filterUnits="userSpaceOnUse" color-interpolation-filters="sRGB">
<feFlood flood-opacity="0" result="BackgroundImageFix"/>
<feColorMatrix in="SourceAlpha" type="matrix" values="0 0 0 0 0 0 0 0 0 0 0 0 0 0 0 0 0 0 127 0" result="hardAlpha"/>
<feOffset/>
<feGaussianBlur stdDeviation="9.49765"/>
<feColorMatrix type="matrix" values="0 0 0 0 0.937255 0 0 0 0 0.266667 0 0 0 0 0.266667 0 0 0 0.58 0"/>
<feBlend mode="normal" in2="BackgroundImageFix" result="effect1_dropShadow_2340_106"/>
<feBlend mode="normal" in="SourceGraphic" in2="effect1_dropShadow_2340_106" result="shape"/>
</filter>
<clipPath id="clip0_2340_106">
<path d="M9.4959 26.4973H26.9974V46.499H9.4959V26.4973Z" fill="white"/>
</clipPath>
</defs>
</svg>
