<svg width="16" height="24" viewBox="0 0 16 24" fill="none" xmlns="http://www.w3.org/2000/svg">
<path d="M16 24H0V0H16V24Z" stroke="#E5E7EB"/>
<path d="M16 22H0V2H16V22Z" stroke="#E5E7EB"/>
<path d="M16 20H0V4H16V20Z" stroke="#E5E7EB"/>
<path d="M3.28437 10.3311C3.525 9.6498 3.91562 9.00918 4.46562 8.4623C6.41875 6.50918 9.58438 6.50918 11.5375 8.4623L12.0719 8.9998H10.5C9.94687 8.9998 9.5 9.44668 9.5 9.9998C9.5 10.5529 9.94687 10.9998 10.5 10.9998H14.4844H14.4969C15.05 10.9998 15.4969 10.5529 15.4969 9.9998V5.9998C15.4969 5.44668 15.05 4.9998 14.4969 4.9998C13.9437 4.9998 13.4969 5.44668 13.4969 5.9998V7.5998L12.95 7.0498C10.2156 4.31543 5.78438 4.31543 3.05 7.0498C2.2875 7.8123 1.7375 8.70918 1.4 9.66855C1.21562 10.1904 1.49063 10.7592 2.00938 10.9436C2.52813 11.1279 3.1 10.8529 3.28437 10.3342V10.3311ZM1.21875 13.0404C1.0625 13.0873 0.9125 13.1717 0.790625 13.2967C0.665625 13.4217 0.58125 13.5717 0.5375 13.7342C0.528125 13.7717 0.51875 13.8123 0.5125 13.8529C0.503125 13.9061 0.5 13.9592 0.5 14.0123V17.9998C0.5 18.5529 0.946875 18.9998 1.5 18.9998C2.05313 18.9998 2.5 18.5529 2.5 17.9998V16.4029L3.05 16.9498C5.78438 19.6811 10.2156 19.6811 12.9469 16.9498C13.7094 16.1873 14.2625 15.2904 14.6 14.3342C14.7844 13.8123 14.5094 13.2436 13.9906 13.0592C13.4719 12.8748 12.9 13.1498 12.7156 13.6686C12.475 14.3498 12.0844 14.9904 11.5344 15.5373C9.58125 17.4904 6.41563 17.4904 4.4625 15.5373L4.45937 15.5342L3.925 14.9998H5.5C6.05312 14.9998 6.5 14.5529 6.5 13.9998C6.5 13.4467 6.05312 12.9998 5.5 12.9998H1.5125C1.4625 12.9998 1.4125 13.0029 1.3625 13.0092C1.3125 13.0154 1.26562 13.0248 1.21875 13.0404Z" fill="#94A3B8"/>
</svg>
