<svg width="38" height="20" viewBox="0 0 38 20" fill="none" xmlns="http://www.w3.org/2000/svg">
<path d="M37.75 20H0V0H37.75V20Z" stroke="#E5E7EB"/>
<path d="M15.75 20H0V0H15.75V20Z" stroke="#E5E7EB"/>
<path d="M15.75 18H0V1H15.75V18Z" stroke="#E5E7EB"/>
<g clip-path="url(#clip0_2340_708)">
<path d="M7.87529 3.625C5.66592 3.625 3.89678 4.63125 2.60889 5.82891C1.3292 7.01562 0.47334 8.4375 0.0686523 9.41367C-0.021582 9.62969 -0.021582 9.87031 0.0686523 10.0863C0.47334 11.0625 1.3292 12.4844 2.60889 13.6711C3.89678 14.8687 5.66592 15.875 7.87529 15.875C10.0847 15.875 11.8538 14.8687 13.1417 13.6711C14.4214 12.4816 15.2772 11.0625 15.6847 10.0863C15.7749 9.87031 15.7749 9.62969 15.6847 9.41367C15.2772 8.4375 14.4214 7.01562 13.1417 5.82891C11.8538 4.63125 10.0847 3.625 7.87529 3.625ZM3.93779 9.75C3.93779 8.70571 4.35264 7.70419 5.09106 6.96577C5.82948 6.22734 6.831 5.8125 7.87529 5.8125C8.91958 5.8125 9.9211 6.22734 10.6595 6.96577C11.398 7.70419 11.8128 8.70571 11.8128 9.75C11.8128 10.7943 11.398 11.7958 10.6595 12.5342C9.9211 13.2727 8.91958 13.6875 7.87529 13.6875C6.831 13.6875 5.82948 13.2727 5.09106 12.5342C4.35264 11.7958 3.93779 10.7943 3.93779 9.75ZM7.87529 8C7.87529 8.96523 7.09053 9.75 6.12529 9.75C5.93115 9.75 5.74521 9.71719 5.57021 9.65977C5.41982 9.61055 5.24482 9.70352 5.25029 9.86211C5.2585 10.0508 5.28584 10.2395 5.33779 10.4281C5.7124 11.8281 7.15342 12.6594 8.55342 12.2848C9.95342 11.9102 10.7847 10.4691 10.4101 9.06914C10.1065 7.93438 9.10303 7.17148 7.9874 7.125C7.82881 7.11953 7.73584 7.2918 7.78506 7.44492C7.84248 7.61992 7.87529 7.80586 7.87529 8Z" fill="#0075FF"/>
</g>
<path d="M37.75 20H23.75V0H37.75V20Z" stroke="#E5E7EB"/>
<path d="M37.75 18H23.75V1H37.75V18Z" stroke="#E5E7EB"/>
<g clip-path="url(#clip1_2340_708)">
<path d="M30.75 16.75C32.6065 16.75 34.387 16.0125 35.6997 14.6997C37.0125 13.387 37.75 11.6065 37.75 9.75C37.75 7.89348 37.0125 6.11301 35.6997 4.80025C34.387 3.4875 32.6065 2.75 30.75 2.75C28.8935 2.75 27.113 3.4875 25.8003 4.80025C24.4875 6.11301 23.75 7.89348 23.75 9.75C23.75 11.6065 24.4875 13.387 25.8003 14.6997C27.113 16.0125 28.8935 16.75 30.75 16.75ZM33.8398 8.46484L30.3398 11.9648C30.0828 12.2219 29.6672 12.2219 29.4129 11.9648L27.6629 10.2148C27.4059 9.95781 27.4059 9.54219 27.6629 9.28789C27.9199 9.03359 28.3355 9.03086 28.5898 9.28789L29.875 10.573L32.9102 7.53516C33.1672 7.27812 33.5828 7.27812 33.8371 7.53516C34.0914 7.79219 34.0941 8.20781 33.8371 8.46211L33.8398 8.46484Z" fill="#10B981"/>
</g>
<defs>
<clipPath id="clip0_2340_708">
<path d="M0 2.75H15.75V16.75H0V2.75Z" fill="white"/>
</clipPath>
<clipPath id="clip1_2340_708">
<path d="M23.75 2.75H37.75V16.75H23.75V2.75Z" fill="white"/>
</clipPath>
</defs>
</svg>
