<svg width="32" height="32" viewBox="0 0 32 32" fill="none" xmlns="http://www.w3.org/2000/svg">
<path d="M24 0C28.4183 0 32 3.58172 32 8V24C32 28.4183 28.4183 32 24 32H8C3.58172 32 0 28.4183 0 24V8C0 3.58172 3.58172 0 8 0H24Z" fill="#8B5CF6"/>
<path d="M24 0C28.4183 0 32 3.58172 32 8V24C32 28.4183 28.4183 32 24 32H8C3.58172 32 0 28.4183 0 24V8C0 3.58172 3.58172 0 8 0H24Z" stroke="#E5E7EB"/>
<path d="M23 26H9V6H23V26Z" stroke="#E5E7EB"/>
<g clip-path="url(#clip0_2340_580)">
<path d="M12.6969 11.9602L11.9832 14H20.0168L19.3031 11.9602C19.1801 11.6102 18.8492 11.375 18.4773 11.375H13.5227C13.1508 11.375 12.8199 11.6102 12.6969 11.9602ZM10.0828 14.1312L11.0453 11.3832C11.4145 10.3305 12.407 9.625 13.5227 9.625H18.4773C19.593 9.625 20.5855 10.3305 20.9547 11.3832L21.9172 14.1312C22.5516 14.3938 23 15.0199 23 15.75V19.6875V21C23 21.484 22.609 21.875 22.125 21.875H21.25C20.766 21.875 20.375 21.484 20.375 21V19.6875H11.625V21C11.625 21.484 11.234 21.875 10.75 21.875H9.875C9.39102 21.875 9 21.484 9 21V19.6875V15.75C9 15.0199 9.44844 14.3938 10.0828 14.1312ZM12.5 16.625C12.5 16.3929 12.4078 16.1704 12.2437 16.0063C12.0796 15.8422 11.8571 15.75 11.625 15.75C11.3929 15.75 11.1704 15.8422 11.0063 16.0063C10.8422 16.1704 10.75 16.3929 10.75 16.625C10.75 16.8571 10.8422 17.0796 11.0063 17.2437C11.1704 17.4078 11.3929 17.5 11.625 17.5C11.8571 17.5 12.0796 17.4078 12.2437 17.2437C12.4078 17.0796 12.5 16.8571 12.5 16.625ZM20.375 17.5C20.6071 17.5 20.8296 17.4078 20.9937 17.2437C21.1578 17.0796 21.25 16.8571 21.25 16.625C21.25 16.3929 21.1578 16.1704 20.9937 16.0063C20.8296 15.8422 20.6071 15.75 20.375 15.75C20.1429 15.75 19.9204 15.8422 19.7563 16.0063C19.5922 16.1704 19.5 16.3929 19.5 16.625C19.5 16.8571 19.5922 17.0796 19.7563 17.2437C19.9204 17.4078 20.1429 17.5 20.375 17.5Z" fill="white"/>
</g>
<defs>
<clipPath id="clip0_2340_580">
<path d="M9 8.75H23V22.75H9V8.75Z" fill="white"/>
</clipPath>
</defs>
</svg>
