<svg width="32" height="32" viewBox="0 0 32 32" fill="none" xmlns="http://www.w3.org/2000/svg">
<path d="M24 0C28.4183 0 32 3.58172 32 8V24C32 28.4183 28.4183 32 24 32H8C3.58172 32 0 28.4183 0 24V8C0 3.58172 3.58172 0 8 0H24Z" fill="#10B981"/>
<path d="M24 0C28.4183 0 32 3.58172 32 8V24C32 28.4183 28.4183 32 24 32H8C3.58172 32 0 28.4183 0 24V8C0 3.58172 3.58172 0 8 0H24Z" stroke="#E5E7EB"/>
<path d="M23 26H9V6H23V26Z" stroke="#E5E7EB"/>
<g clip-path="url(#clip0_2340_598)">
<path d="M16.4375 11.3751C14.2883 11.3751 12.4699 12.7833 11.852 14.7247C12.7707 14.2599 13.807 14.0001 14.9062 14.0001H17.3125C17.5531 14.0001 17.75 14.197 17.75 14.4376C17.75 14.6782 17.5531 14.8751 17.3125 14.8751H16.875H14.9062C14.4523 14.8751 14.0121 14.9271 13.5883 15.0228C12.8801 15.1841 12.2211 15.4712 11.6359 15.8622C10.0473 16.9204 9 18.7278 9 20.7814V21.2189C9 21.5825 9.29258 21.8751 9.65625 21.8751C10.0199 21.8751 10.3125 21.5825 10.3125 21.2189V20.7814C10.3125 19.4497 10.8785 18.2521 11.7836 17.4126C12.325 19.4771 14.2035 21.0001 16.4375 21.0001H16.4648C20.077 20.981 23 17.4208 23 13.0321C23 11.8673 22.7949 10.7599 22.423 9.76182C22.352 9.57315 22.0758 9.58136 21.9801 9.75909C21.466 10.7216 20.4488 11.3751 19.2812 11.3751H16.4375Z" fill="white"/>
</g>
<defs>
<clipPath id="clip0_2340_598">
<path d="M9 8.75H23V22.75H9V8.75Z" fill="white"/>
</clipPath>
</defs>
</svg>
