<svg width="48" height="48" viewBox="0 0 48 48" fill="none" xmlns="http://www.w3.org/2000/svg">
<path d="M12 1H36C42.0751 1 47 5.92487 47 12V36C47 42.0751 42.0751 47 36 47H12C5.92487 47 1 42.0751 1 36V12C1 5.92487 5.92487 1 12 1Z" fill="#8B5CF6" fill-opacity="0.2"/>
<path d="M12 1H36C42.0751 1 47 5.92487 47 12V36C47 42.0751 42.0751 47 36 47H12C5.92487 47 1 42.0751 1 36V12C1 5.92487 5.92487 1 12 1Z" stroke="#8B5CF6" stroke-width="2"/>
<path d="M34 36H14V12H34V36Z" stroke="#E5E7EB"/>
<g clip-path="url(#clip0_2340_919)">
<path d="M18.5 16C19.163 16 19.7989 16.2634 20.2678 16.7322C20.7366 17.2011 21 17.837 21 18.5C21 19.163 20.7366 19.7989 20.2678 20.2678C19.7989 20.7366 19.163 21 18.5 21C17.837 21 17.2011 20.7366 16.7322 20.2678C16.2634 19.7989 16 19.163 16 18.5C16 17.837 16.2634 17.2011 16.7322 16.7322C17.2011 16.2634 17.837 16 18.5 16ZM30 16C30.663 16 31.2989 16.2634 31.7678 16.7322C32.2366 17.2011 32.5 17.837 32.5 18.5C32.5 19.163 32.2366 19.7989 31.7678 20.2678C31.2989 20.7366 30.663 21 30 21C29.337 21 28.7011 20.7366 28.2322 20.2678C27.7634 19.7989 27.5 19.163 27.5 18.5C27.5 17.837 27.7634 17.2011 28.2322 16.7322C28.7011 16.2634 29.337 16 30 16ZM14 25.3344C14 23.4938 15.4937 22 17.3344 22H18.6687C19.1656 22 19.6375 22.1094 20.0625 22.3031C20.0219 22.5281 20.0031 22.7625 20.0031 23C20.0031 24.1938 20.5281 25.2656 21.3562 26C21.35 26 21.3438 26 21.3344 26H14.6656C14.3 26 14 25.7 14 25.3344ZM26.6656 26C26.6594 26 26.6531 26 26.6438 26C27.475 25.2656 27.9969 24.1938 27.9969 23C27.9969 22.7625 27.975 22.5312 27.9375 22.3031C28.3625 22.1062 28.8344 22 29.3313 22H30.6656C32.5063 22 34 23.4938 34 25.3344C34 25.7031 33.7 26 33.3344 26H26.6656ZM21 23C21 22.2044 21.3161 21.4413 21.8787 20.8787C22.4413 20.3161 23.2044 20 24 20C24.7956 20 25.5587 20.3161 26.1213 20.8787C26.6839 21.4413 27 22.2044 27 23C27 23.7956 26.6839 24.5587 26.1213 25.1213C25.5587 25.6839 24.7956 26 24 26C23.2044 26 22.4413 25.6839 21.8787 25.1213C21.3161 24.5587 21 23.7956 21 23ZM18 31.1656C18 28.8656 19.8656 27 22.1656 27H25.8344C28.1344 27 30 28.8656 30 31.1656C30 31.625 29.6281 32 29.1656 32H18.8344C18.375 32 18 31.6281 18 31.1656Z" fill="#8B5CF6"/>
</g>
<defs>
<clipPath id="clip0_2340_919">
<path d="M14 16H34V32H14V16Z" fill="white"/>
</clipPath>
</defs>
</svg>
