<svg width="32" height="32" viewBox="0 0 32 32" fill="none" xmlns="http://www.w3.org/2000/svg">
<path d="M24 0C28.4183 0 32 3.58172 32 8V24C32 28.4183 28.4183 32 24 32H8C3.58172 32 0 28.4183 0 24V8C0 3.58172 3.58172 0 8 0H24Z" fill="#FF7A00"/>
<path d="M24 0C28.4183 0 32 3.58172 32 8V24C32 28.4183 28.4183 32 24 32H8C3.58172 32 0 28.4183 0 24V8C0 3.58172 3.58172 0 8 0H24Z" stroke="#E5E7EB"/>
<path d="M23.875 26H8.125V6H23.875V26Z" stroke="#E5E7EB"/>
<path d="M23.875 22.75H8.125V8.75H23.875V22.75Z" stroke="#E5E7EB"/>
<path d="M9.875 9.625C9.39102 9.625 9 10.016 9 10.5V17.0625V18.375V20.5625C9 21.2871 9.58789 21.875 10.3125 21.875H21.6875C22.4121 21.875 23 21.2871 23 20.5625V17.0625V12.9117C23 12.4141 22.4695 12.0996 22.032 12.3348L17.75 14.6398V12.9117C17.75 12.4141 17.2195 12.0996 16.782 12.3348L12.5 14.6398V10.5C12.5 10.016 12.109 9.625 11.625 9.625H9.875Z" fill="white"/>
</svg>
