<svg width="33" height="40" viewBox="0 0 33 40" fill="none" xmlns="http://www.w3.org/2000/svg">
<path d="M20.2656 0C26.893 0 32.2656 5.37258 32.2656 12V28C32.2656 34.6274 26.893 40 20.2656 40H12C5.37258 40 0 34.6274 0 28V12C0 5.37258 5.37258 0 12 0H20.2656Z" fill="#8B5CF6"/>
<path d="M20.2656 0C26.893 0 32.2656 5.37258 32.2656 12V28C32.2656 34.6274 26.893 40 20.2656 40H12C5.37258 40 0 34.6274 0 28V12C0 5.37258 5.37258 0 12 0H20.2656Z" stroke="#E5E7EB"/>
<path d="M26.125 32H6.125V8H26.125V32Z" stroke="#E5E7EB"/>
<g clip-path="url(#clip0_2340_886)">
<path d="M9.125 16C9.125 14.9391 9.54643 13.9217 10.2966 13.1716C11.0467 12.4214 12.0641 12 13.125 12C14.1859 12 15.2033 12.4214 15.9534 13.1716C16.7036 13.9217 17.125 14.9391 17.125 16C17.125 17.0609 16.7036 18.0783 15.9534 18.8284C15.2033 19.5786 14.1859 20 13.125 20C12.0641 20 11.0467 19.5786 10.2966 18.8284C9.54643 18.0783 9.125 17.0609 9.125 16ZM6.125 27.0719C6.125 23.9937 8.61875 21.5 11.6969 21.5H14.5531C17.6313 21.5 20.125 23.9937 20.125 27.0719C20.125 27.5844 19.7094 28 19.1969 28H7.05313C6.54063 28 6.125 27.5844 6.125 27.0719ZM25.6562 17.5312L21.6562 21.5312C21.3625 21.825 20.8875 21.825 20.5969 21.5312L18.5969 19.5312C18.3031 19.2375 18.3031 18.7625 18.5969 18.4719C18.8906 18.1813 19.3656 18.1781 19.6562 18.4719L21.125 19.9406L24.5938 16.4688C24.8875 16.175 25.3625 16.175 25.6531 16.4688C25.9438 16.7625 25.9469 17.2375 25.6531 17.5281L25.6562 17.5312Z" fill="white"/>
</g>
<defs>
<clipPath id="clip0_2340_886">
<path d="M6.125 12H26.125V28H6.125V12Z" fill="white"/>
</clipPath>
</defs>
</svg>
