<svg width="91" height="91" viewBox="0 0 91 91" fill="none" xmlns="http://www.w3.org/2000/svg">
<g opacity="0.2">
<path d="M77.6733 77.6733H13.3267V13.3267H77.6733V77.6733Z" stroke="#E5E7EB"/>
<path d="M91 91H0V0H91V91Z" stroke="#E5E7EB"/>
<path opacity="0.3" d="M45.4999 86.4498C68.1159 86.4498 86.4498 68.1159 86.4498 45.4999C86.4498 22.8838 68.1159 4.5499 45.4999 4.5499C22.8838 4.5499 4.5499 22.8838 4.5499 45.4999C4.5499 68.1159 22.8838 86.4498 45.4999 86.4498Z" stroke="white" stroke-width="7.24077"/>
<path d="M45.4999 86.4498C68.1159 86.4498 86.4498 68.1159 86.4498 45.4999C86.4498 22.8838 68.1159 4.5499 45.4999 4.5499C22.8838 4.5499 4.5499 22.8838 4.5499 45.4999C4.5499 68.1159 22.8838 86.4498 45.4999 86.4498Z" stroke="white" stroke-width="7.24077" stroke-linecap="round" stroke-dasharray="227.36 227.36"/>
</g>
</svg>
