<svg width="40" height="40" viewBox="0 0 40 40" fill="none" xmlns="http://www.w3.org/2000/svg">
<path d="M20 0C31.0457 0 40 8.95431 40 20C40 31.0457 31.0457 40 20 40C8.95431 40 0 31.0457 0 20C0 8.95431 8.95431 0 20 0Z" fill="#FF7A00" fill-opacity="0.2"/>
<path d="M20 0C31.0457 0 40 8.95431 40 20C40 31.0457 31.0457 40 20 40C8.95431 40 0 31.0457 0 20C0 8.95431 8.95431 0 20 0Z" stroke="#E5E7EB"/>
<path d="M27 32H13V8H27V32Z" stroke="#E5E7EB"/>
<g clip-path="url(#clip0_2340_323)">
<path d="M20 12.5C19.7906 12.5 19.6625 12.4125 19.5156 12.3094C19.3094 12.1687 19.0625 12 18.5 12C17.5469 12 16.875 13.3656 16.4375 14.7938C14.9594 15.0656 14 15.5062 14 16C14 16.4469 14.7812 16.8469 16.0187 17.1219C16.0062 17.2469 16 17.3719 16 17.5C16 18.0312 16.1031 18.5375 16.2906 19H14.4188C14.1875 19 14 19.1875 14 19.4187C14 19.4719 14.0094 19.525 14.0312 19.575L15.2438 22.6031C13.8813 23.6187 13 25.2437 13 27.0719C13 27.5844 13.4156 28 13.9281 28H26.0719C26.5844 28 27 27.5844 27 27.0719C27 25.2437 26.1187 23.6219 24.7594 22.6031L25.9688 19.575C25.9875 19.525 26 19.4719 26 19.4187C26 19.1875 25.8125 19 25.5813 19H23.7094C23.8969 18.5375 24 18.0312 24 17.5C24 17.3719 23.9937 17.2469 23.9812 17.1219C25.2188 16.8469 26 16.4469 26 16C26 15.5062 25.0406 15.0656 23.5625 14.7938C23.125 13.3656 22.4531 12 21.5 12C20.9375 12 20.6906 12.1687 20.4844 12.3094C20.3344 12.4125 20.2094 12.5 20 12.5ZM21.75 19H21.3625C20.8469 19 20.3906 18.6688 20.2281 18.1813C20.1562 17.9625 19.8469 17.9625 19.775 18.1813C19.6125 18.6688 19.1531 19 18.6406 19H18.25C17.5594 19 17 18.4406 17 17.75V17.3C17.8812 17.4281 18.9062 17.5 20 17.5C21.0938 17.5 22.1187 17.4281 23 17.3V17.75C23 18.4406 22.4406 19 21.75 19ZM19 22L19.5 23L18.5 27L17 21L19 22ZM23 21L21.5 27L20.5 23L21 22L23 21Z" fill="#FF7A00"/>
</g>
<defs>
<clipPath id="clip0_2340_323">
<path d="M13 12H27V28H13V12Z" fill="white"/>
</clipPath>
</defs>
</svg>
