<svg width="32" height="32" viewBox="0 0 32 32" fill="none" xmlns="http://www.w3.org/2000/svg">
<path d="M24 0C28.4183 0 32 3.58172 32 8V24C32 28.4183 28.4183 32 24 32H8C3.58172 32 0 28.4183 0 24V8C0 3.58172 3.58172 0 8 0H24Z" fill="#6B7280"/>
<path d="M24 0C28.4183 0 32 3.58172 32 8V24C32 28.4183 28.4183 32 24 32H8C3.58172 32 0 28.4183 0 24V8C0 3.58172 3.58172 0 8 0H24Z" stroke="#E5E7EB"/>
<path d="M23 26H9V6H23V26Z" stroke="#E5E7EB"/>
<g clip-path="url(#clip0_2340_592)">
<path d="M11.149 8.88656C10.8893 8.68422 10.5201 8.70882 10.285 8.94125L9.1912 10.035C8.95878 10.2674 8.93417 10.6366 9.13378 10.8991L11.3213 13.7428C11.4443 13.9041 11.6385 13.9998 11.8408 13.9998H13.3201L16.3006 16.9803C15.8986 17.7733 16.0271 18.7686 16.6916 19.4303L19.7541 22.4928C20.0959 22.8346 20.651 22.8346 20.9928 22.4928L22.7428 20.7428C23.0846 20.401 23.0846 19.8459 22.7428 19.5041L19.6803 16.4416C19.0185 15.7799 18.0232 15.6487 17.2303 16.0506L14.2498 13.0702V11.5936C14.2498 11.3885 14.1541 11.1971 13.9928 11.0741L11.149 8.88656ZM9.54394 19.5807C9.19667 19.928 8.9998 20.401 8.9998 20.8932C8.9998 21.9186 9.83105 22.7498 10.8564 22.7498C11.3486 22.7498 11.8217 22.553 12.1689 22.2057L15.39 18.9846C15.1768 18.4131 15.1439 17.7924 15.2916 17.2045L13.6045 15.5174L9.54394 19.5807ZM22.9998 12.6873C22.9998 12.4002 22.9697 12.1213 22.9123 11.8534C22.8467 11.5471 22.4721 11.4678 22.2506 11.6893L20.5033 13.4366C20.4213 13.5186 20.3092 13.5651 20.1943 13.5651H18.6248C18.3842 13.5651 18.1873 13.3682 18.1873 13.1276V11.5553C18.1873 11.4405 18.2338 11.3284 18.3158 11.2463L20.0631 9.49906C20.2846 9.27757 20.2053 8.90297 19.899 8.83734C19.6283 8.77992 19.3494 8.74984 19.0623 8.74984C16.8885 8.74984 15.1248 10.5135 15.1248 12.6873V12.7092L17.4572 15.0416C18.4416 14.7928 19.5299 15.0553 20.301 15.8264L20.7303 16.2557C22.0701 15.6268 22.9998 14.2651 22.9998 12.6873ZM10.531 20.5623C10.531 20.3883 10.6002 20.2214 10.7233 20.0983C10.8463 19.9752 11.0132 19.9061 11.1873 19.9061C11.3613 19.9061 11.5283 19.9752 11.6513 20.0983C11.7744 20.2214 11.8435 20.3883 11.8435 20.5623C11.8435 20.7364 11.7744 20.9033 11.6513 21.0264C11.5283 21.1494 11.3613 21.2186 11.1873 21.2186C11.0132 21.2186 10.8463 21.1494 10.7233 21.0264C10.6002 20.9033 10.531 20.7364 10.531 20.5623Z" fill="white"/>
</g>
<defs>
<clipPath id="clip0_2340_592">
<path d="M9 8.75H23V22.75H9V8.75Z" fill="white"/>
</clipPath>
</defs>
</svg>
