<svg width="32" height="32" viewBox="0 0 32 32" fill="none" xmlns="http://www.w3.org/2000/svg">
<path d="M24 0C28.4183 0 32 3.58172 32 8V24C32 28.4183 28.4183 32 24 32H8C3.58172 32 0 28.4183 0 24V8C0 3.58172 3.58172 0 8 0H24Z" fill="#10B981"/>
<path d="M24 0C28.4183 0 32 3.58172 32 8V24C32 28.4183 28.4183 32 24 32H8C3.58172 32 0 28.4183 0 24V8C0 3.58172 3.58172 0 8 0H24Z" stroke="#E5E7EB"/>
<path d="M23.875 26H8.125V6H23.875V26Z" stroke="#E5E7EB"/>
<g clip-path="url(#clip0_2340_574)">
<path d="M23.8695 15.7363C23.8695 16.2285 23.4594 16.6141 22.9945 16.6141H22.1195L22.1387 20.9945C22.1387 21.0684 22.1332 21.1422 22.125 21.216V21.6562C22.125 22.2605 21.6355 22.75 21.0312 22.75H20.5938C20.5637 22.75 20.5336 22.75 20.5035 22.7473C20.4652 22.75 20.427 22.75 20.3887 22.75H19.5H18.8438C18.2395 22.75 17.75 22.2605 17.75 21.6562V21V19.25C17.75 18.766 17.359 18.375 16.875 18.375H15.125C14.641 18.375 14.25 18.766 14.25 19.25V21V21.6562C14.25 22.2605 13.7605 22.75 13.1562 22.75H12.5H11.6277C11.5867 22.75 11.5457 22.7473 11.5047 22.7445C11.4719 22.7473 11.4391 22.75 11.4062 22.75H10.9688C10.3645 22.75 9.875 22.2605 9.875 21.6562V18.5938C9.875 18.5691 9.875 18.5418 9.87773 18.5172V16.6141H9C8.50781 16.6141 8.125 16.2312 8.125 15.7363C8.125 15.4902 8.20703 15.2715 8.39844 15.0801L15.4094 8.96875C15.6008 8.77734 15.8195 8.75 16.0109 8.75C16.2023 8.75 16.4211 8.80469 16.5852 8.94141L23.5687 15.0801C23.7875 15.2715 23.8969 15.4902 23.8695 15.7363Z" fill="white"/>
</g>
<defs>
<clipPath id="clip0_2340_574">
<path d="M8.125 8.75H23.875V22.75H8.125V8.75Z" fill="white"/>
</clipPath>
</defs>
</svg>
