<svg width="38" height="20" viewBox="0 0 38 20" fill="none" xmlns="http://www.w3.org/2000/svg">
<path d="M37.75 20H0V0H37.75V20Z" stroke="#E5E7EB"/>
<path d="M15.75 20H0V0H15.75V20Z" stroke="#E5E7EB"/>
<path d="M15.75 18H0V1H15.75V18Z" stroke="#E5E7EB"/>
<g clip-path="url(#clip0_2340_694)">
<path d="M7.87529 3.625C5.66592 3.625 3.89678 4.63125 2.60889 5.82891C1.3292 7.01562 0.47334 8.4375 0.0686523 9.41367C-0.021582 9.62969 -0.021582 9.87031 0.0686523 10.0863C0.47334 11.0625 1.3292 12.4844 2.60889 13.6711C3.89678 14.8687 5.66592 15.875 7.87529 15.875C10.0847 15.875 11.8538 14.8687 13.1417 13.6711C14.4214 12.4816 15.2772 11.0625 15.6847 10.0863C15.7749 9.87031 15.7749 9.62969 15.6847 9.41367C15.2772 8.4375 14.4214 7.01562 13.1417 5.82891C11.8538 4.63125 10.0847 3.625 7.87529 3.625ZM3.93779 9.75C3.93779 8.70571 4.35264 7.70419 5.09106 6.96577C5.82948 6.22734 6.831 5.8125 7.87529 5.8125C8.91958 5.8125 9.9211 6.22734 10.6595 6.96577C11.398 7.70419 11.8128 8.70571 11.8128 9.75C11.8128 10.7943 11.398 11.7958 10.6595 12.5342C9.9211 13.2727 8.91958 13.6875 7.87529 13.6875C6.831 13.6875 5.82948 13.2727 5.09106 12.5342C4.35264 11.7958 3.93779 10.7943 3.93779 9.75ZM7.87529 8C7.87529 8.96523 7.09053 9.75 6.12529 9.75C5.93115 9.75 5.74521 9.71719 5.57021 9.65977C5.41982 9.61055 5.24482 9.70352 5.25029 9.86211C5.2585 10.0508 5.28584 10.2395 5.33779 10.4281C5.7124 11.8281 7.15342 12.6594 8.55342 12.2848C9.95342 11.9102 10.7847 10.4691 10.4101 9.06914C10.1065 7.93438 9.10303 7.17148 7.9874 7.125C7.82881 7.11953 7.73584 7.2918 7.78506 7.44492C7.84248 7.61992 7.87529 7.80586 7.87529 8Z" fill="#0075FF"/>
</g>
<path d="M37.75 20H23.75V0H37.75V20Z" stroke="#E5E7EB"/>
<path d="M37.75 18H23.75V1H37.75V18Z" stroke="#E5E7EB"/>
<path d="M37.75 16.75H23.75V2.75H37.75V16.75Z" stroke="#E5E7EB"/>
<path d="M30.75 3.625C31.1382 3.625 31.4965 3.83008 31.6933 4.16641L37.5996 14.2289C37.7992 14.568 37.7992 14.9863 37.605 15.3254C37.4109 15.6645 37.0472 15.875 36.6562 15.875H24.8437C24.4527 15.875 24.089 15.6645 23.8949 15.3254C23.7007 14.9863 23.7035 14.5652 23.9004 14.2289L29.8066 4.16641C30.0035 3.83008 30.3617 3.625 30.75 3.625ZM30.75 7.125C30.3863 7.125 30.0937 7.41758 30.0937 7.78125V10.8438C30.0937 11.2074 30.3863 11.5 30.75 11.5C31.1136 11.5 31.4062 11.2074 31.4062 10.8438V7.78125C31.4062 7.41758 31.1136 7.125 30.75 7.125ZM31.625 13.25C31.625 13.0179 31.5328 12.7954 31.3687 12.6313C31.2046 12.4672 30.982 12.375 30.75 12.375C30.5179 12.375 30.2953 12.4672 30.1312 12.6313C29.9672 12.7954 29.875 13.0179 29.875 13.25C29.875 13.4821 29.9672 13.7046 30.1312 13.8687C30.2953 14.0328 30.5179 14.125 30.75 14.125C30.982 14.125 31.2046 14.0328 31.3687 13.8687C31.5328 13.7046 31.625 13.4821 31.625 13.25Z" fill="#EF4444"/>
<defs>
<clipPath id="clip0_2340_694">
<path d="M0 2.75H15.75V16.75H0V2.75Z" fill="white"/>
</clipPath>
</defs>
</svg>
