<svg width="48" height="48" viewBox="0 0 48 48" fill="none" xmlns="http://www.w3.org/2000/svg">
<path d="M12 1H36C42.0751 1 47 5.92487 47 12V36C47 42.0751 42.0751 47 36 47H12C5.92487 47 1 42.0751 1 36V12C1 5.92487 5.92487 1 12 1Z" fill="#EF4444" fill-opacity="0.2"/>
<path d="M12 1H36C42.0751 1 47 5.92487 47 12V36C47 42.0751 42.0751 47 36 47H12C5.92487 47 1 42.0751 1 36V12C1 5.92487 5.92487 1 12 1Z" stroke="#EF4444" stroke-width="2"/>
<path d="M31 36H17V12H31V36Z" stroke="#E5E7EB"/>
<path d="M31 32H17V16H31V32Z" stroke="#E5E7EB"/>
<path d="M23 16C23.5531 16 24 16.4469 24 17V20.5H22V17C22 16.4469 22.4469 16 23 16ZM19 18C19 17.4469 19.4469 17 20 17C20.5531 17 21 17.4469 21 18V20.5H19V18ZM25 18C25 17.4469 25.4469 17 26 17C26.5531 17 27 17.4469 27 18V21C27 21.5531 26.5531 22 26 22C25.4469 22 25 21.5531 25 21V18ZM28 20C28 19.4469 28.4469 19 29 19C29.5531 19 30 19.4469 30 20V22C30 22.5531 29.5531 23 29 23C28.4469 23 28 22.5531 28 22V20ZM25 22.75V22.7312C25.2937 22.9 25.6344 23 26 23C26.4125 23 26.7937 22.875 27.1125 22.6625C27.3844 23.4406 28.1281 24 29 24C29.3656 24 29.7063 23.9031 30 23.7312V24C30 25.6344 29.2156 27.0875 28 28V31C28 31.5531 27.5531 32 27 32H22C21.4469 32 21 31.5531 21 31V28.55C20.4594 28.3031 19.9625 27.9625 19.5344 27.5344L19.1719 27.1719C18.4219 26.4219 18 25.4031 18 24.3438V23.5C18 22.3969 18.8969 21.5 20 21.5H22.75C23.4406 21.5 24 22.0594 24 22.75C24 23.4406 23.4406 24 22.75 24H21C20.725 24 20.5 24.225 20.5 24.5C20.5 24.775 20.725 25 21 25H22.75C23.9938 25 25 23.9938 25 22.75Z" fill="#EF4444"/>
</svg>
