<svg width="32" height="32" viewBox="0 0 32 32" fill="none" xmlns="http://www.w3.org/2000/svg">
<path d="M24 0C28.4183 0 32 3.58172 32 8V24C32 28.4183 28.4183 32 24 32H8C3.58172 32 0 28.4183 0 24V8C0 3.58172 3.58172 0 8 0H24Z" fill="#10B981"/>
<path d="M24 0C28.4183 0 32 3.58172 32 8V24C32 28.4183 28.4183 32 24 32H8C3.58172 32 0 28.4183 0 24V8C0 3.58172 3.58172 0 8 0H24Z" stroke="#E5E7EB"/>
<path d="M23 26H9V6H23V26Z" stroke="#E5E7EB"/>
<g clip-path="url(#clip0_2340_508)">
<path d="M13.077 10.5219L12.7926 11.375H10.75C9.78477 11.375 9 12.1598 9 13.125V20.125C9 21.0902 9.78477 21.875 10.75 21.875H21.25C22.2152 21.875 23 21.0902 23 20.125V13.125C23 12.1598 22.2152 11.375 21.25 11.375H19.2074L18.923 10.5219C18.7453 9.98594 18.2449 9.625 17.6789 9.625H14.3211C13.7551 9.625 13.2547 9.98594 13.077 10.5219ZM16 14C16.6962 14 17.3639 14.2766 17.8562 14.7688C18.3484 15.2611 18.625 15.9288 18.625 16.625C18.625 17.3212 18.3484 17.9889 17.8562 18.4812C17.3639 18.9734 16.6962 19.25 16 19.25C15.3038 19.25 14.6361 18.9734 14.1438 18.4812C13.6516 17.9889 13.375 17.3212 13.375 16.625C13.375 15.9288 13.6516 15.2611 14.1438 14.7688C14.6361 14.2766 15.3038 14 16 14Z" fill="white"/>
</g>
<defs>
<clipPath id="clip0_2340_508">
<path d="M9 8.75H23V22.75H9V8.75Z" fill="white"/>
</clipPath>
</defs>
</svg>
