<svg width="48" height="48" viewBox="0 0 48 48" fill="none" xmlns="http://www.w3.org/2000/svg">
<path d="M12 1H36C42.0751 1 47 5.92487 47 12V36C47 42.0751 42.0751 47 36 47H12C5.92487 47 1 42.0751 1 36V12C1 5.92487 5.92487 1 12 1Z" fill="#DC2626" fill-opacity="0.2"/>
<path d="M12 1H36C42.0751 1 47 5.92487 47 12V36C47 42.0751 42.0751 47 36 47H12C5.92487 47 1 42.0751 1 36V12C1 5.92487 5.92487 1 12 1Z" stroke="#DC2626" stroke-width="2"/>
<path d="M33 36H15V12H33V36Z" stroke="#E5E7EB"/>
<g clip-path="url(#clip0_2340_924)">
<path d="M31.5 17.75C31.5 17.3344 31.1656 17 30.75 17C30.3344 17 30 17.3344 30 17.75V18H16C15.4469 18 15 18.4469 15 19V22.5C15 23.0531 15.4469 23.5 16 23.5H16.3125C16.9625 23.5 17.4406 24.1125 17.2812 24.7437L16.0312 29.7563C15.9563 30.0563 16.025 30.3719 16.2125 30.6156C16.4 30.8594 16.6906 31 17 31H20C20.4594 31 20.8594 30.6875 20.9688 30.2437L21.7812 27H25.0437C25.7844 27 26.4438 26.5344 26.6906 25.8375L27.5281 23.5H28.5C28.7656 23.5 29.0188 23.3938 29.2063 23.2063L29.9156 22.5H32C32.5531 22.5 33 22.0531 33 21.5V19C33 18.4469 32.5531 18 32 18H31.5V17.75ZM25.0437 25.5H22.1562L22.6562 23.5H25.9375L25.2812 25.3344C25.2469 25.4344 25.15 25.5 25.0469 25.5H25.0437ZM17.5 20H29.5C29.775 20 30 20.225 30 20.5C30 20.775 29.775 21 29.5 21H17.5C17.225 21 17 20.775 17 20.5C17 20.225 17.225 20 17.5 20Z" fill="#DC2626"/>
</g>
<defs>
<clipPath id="clip0_2340_924">
<path d="M15 16H33V32H15V16Z" fill="white"/>
</clipPath>
</defs>
</svg>
