<svg width="110" height="40" viewBox="0 0 110 40" fill="none" xmlns="http://www.w3.org/2000/svg">
<path d="M110 40H0V0H110V40Z" stroke="#E5E7EB"/>
<path d="M24 0C28.4183 0 32 3.58172 32 8V32C32 36.4183 28.4183 40 24 40H8C3.58172 40 6.44277e-08 36.4183 0 32V8C0 3.58172 3.58172 0 8 0H24Z" stroke="#E5E7EB"/>
<path d="M24 30H8V10H24V30Z" stroke="#E5E7EB"/>
<g clip-path="url(#clip0_2340_286)">
<path d="M13.75 12C14.7156 12 15.5 12.7844 15.5 13.75V26.25C15.5 27.2156 14.7156 28 13.75 28C12.8469 28 12.1031 27.3156 12.0094 26.4344C11.8469 26.4781 11.675 26.5 11.5 26.5C10.3969 26.5 9.5 25.6031 9.5 24.5C9.5 24.2688 9.54062 24.0437 9.6125 23.8375C8.66875 23.4812 8 22.5688 8 21.5C8 20.5031 8.58437 19.6406 9.43125 19.2406C9.15937 18.9 9 18.4688 9 18C9 17.0406 9.675 16.2406 10.575 16.0437C10.525 15.8719 10.5 15.6875 10.5 15.5C10.5 14.5656 11.1438 13.7781 12.0094 13.5594C12.1031 12.6844 12.8469 12 13.75 12ZM18.25 12C19.1531 12 19.8938 12.6844 19.9906 13.5594C20.8594 13.7781 21.5 14.5625 21.5 15.5C21.5 15.6875 21.475 15.8719 21.425 16.0437C22.325 16.2375 23 17.0406 23 18C23 18.4688 22.8406 18.9 22.5688 19.2406C23.4156 19.6406 24 20.5031 24 21.5C24 22.5688 23.3313 23.4812 22.3875 23.8375C22.4594 24.0437 22.5 24.2688 22.5 24.5C22.5 25.6031 21.6031 26.5 20.5 26.5C20.325 26.5 20.1531 26.4781 19.9906 26.4344C19.8969 27.3156 19.1531 28 18.25 28C17.2844 28 16.5 27.2156 16.5 26.25V13.75C16.5 12.7844 17.2844 12 18.25 12Z" fill="white" fill-opacity="0.7"/>
</g>
<path d="M64 0C68.4183 0 72 3.58172 72 8V32C72 36.4183 68.4183 40 64 40H48C43.5817 40 40 36.4183 40 32V8C40 3.58172 43.5817 0 48 0H64Z" stroke="#E5E7EB"/>
<path d="M64 30H48V10H64V30Z" stroke="#E5E7EB"/>
<g clip-path="url(#clip1_2340_286)">
<path d="M63.4967 17.2063C63.5967 17.4781 63.5123 17.7812 63.2967 17.975L61.9436 19.2063C61.9779 19.4656 61.9967 19.7312 61.9967 20C61.9967 20.2688 61.9779 20.5344 61.9436 20.7937L63.2967 22.025C63.5123 22.2188 63.5967 22.5219 63.4967 22.7937C63.3592 23.1656 63.1936 23.5219 63.0029 23.8656L62.8561 24.1187C62.6498 24.4625 62.4186 24.7875 62.1654 25.0938C61.9811 25.3188 61.6748 25.3937 61.3998 25.3062L59.6592 24.7531C59.2404 25.075 58.7779 25.3438 58.2842 25.5469L57.8936 27.3313C57.8311 27.6156 57.6123 27.8406 57.3248 27.8875C56.8936 27.9594 56.4498 27.9969 55.9967 27.9969C55.5436 27.9969 55.0998 27.9594 54.6686 27.8875C54.3811 27.8406 54.1623 27.6156 54.0998 27.3313L53.7092 25.5469C53.2154 25.3438 52.7529 25.075 52.3342 24.7531L50.5967 25.3094C50.3217 25.3969 50.0154 25.3188 49.8311 25.0969C49.5779 24.7906 49.3467 24.4656 49.1404 24.1219L48.9936 23.8687C48.8029 23.525 48.6373 23.1687 48.4998 22.7969C48.3998 22.525 48.4842 22.2219 48.6998 22.0281L50.0529 20.7969C50.0186 20.5344 49.9998 20.2688 49.9998 20C49.9998 19.7312 50.0186 19.4656 50.0529 19.2063L48.6998 17.975C48.4842 17.7812 48.3998 17.4781 48.4998 17.2063C48.6373 16.8344 48.8029 16.4781 48.9936 16.1344L49.1404 15.8812C49.3467 15.5375 49.5779 15.2125 49.8311 14.9062C50.0154 14.6813 50.3217 14.6062 50.5967 14.6937L52.3373 15.2469C52.7561 14.925 53.2186 14.6562 53.7123 14.4531L54.1029 12.6687C54.1654 12.3844 54.3842 12.1594 54.6717 12.1125C55.1029 12.0375 55.5467 12 55.9998 12C56.4529 12 56.8967 12.0375 57.3279 12.1094C57.6154 12.1562 57.8342 12.3812 57.8967 12.6656L58.2873 14.45C58.7811 14.6531 59.2436 14.9219 59.6623 15.2438L61.4029 14.6906C61.6779 14.6031 61.9842 14.6813 62.1686 14.9031C62.4217 15.2094 62.6529 15.5344 62.8592 15.8781L63.0061 16.1312C63.1967 16.475 63.3623 16.8313 63.4998 17.2031L63.4967 17.2063ZM55.9998 22.5C56.6629 22.5 57.2987 22.2366 57.7676 21.7678C58.2364 21.2989 58.4998 20.663 58.4998 20C58.4998 19.337 58.2364 18.7011 57.7676 18.2322C57.2987 17.7634 56.6629 17.5 55.9998 17.5C55.3368 17.5 54.7009 17.7634 54.232 18.2322C53.7632 18.7011 53.4998 19.337 53.4998 20C53.4998 20.663 53.7632 21.2989 54.232 21.7678C54.7009 22.2366 55.3368 22.5 55.9998 22.5Z" fill="white" fill-opacity="0.7"/>
</g>
<path d="M102 0C106.418 0 110 3.58172 110 8V32C110 36.4183 106.418 40 102 40H88C83.5817 40 80 36.4183 80 32V8C80 3.58172 83.5817 2.2549e-07 88 0H102Z" stroke="#E5E7EB"/>
<path d="M102 30H88V10H102V30Z" stroke="#E5E7EB"/>
<path d="M102 28H88V12H102V28Z" stroke="#E5E7EB"/>
<path d="M89 13C88.4469 13 88 13.4469 88 14V17C88 17.5531 88.4469 18 89 18C89.5531 18 90 17.5531 90 17V15H92C92.5531 15 93 14.5531 93 14C93 13.4469 92.5531 13 92 13H89ZM90 23C90 22.4469 89.5531 22 89 22C88.4469 22 88 22.4469 88 23V26C88 26.5531 88.4469 27 89 27H92C92.5531 27 93 26.5531 93 26C93 25.4469 92.5531 25 92 25H90V23ZM98 13C97.4469 13 97 13.4469 97 14C97 14.5531 97.4469 15 98 15H100V17C100 17.5531 100.447 18 101 18C101.553 18 102 17.5531 102 17V14C102 13.4469 101.553 13 101 13H98ZM102 23C102 22.4469 101.553 22 101 22C100.447 22 100 22.4469 100 23V25H98C97.4469 25 97 25.4469 97 26C97 26.5531 97.4469 27 98 27H101C101.553 27 102 26.5531 102 26V23Z" fill="white" fill-opacity="0.7"/>
<defs>
<clipPath id="clip0_2340_286">
<path d="M8 12H24V28H8V12Z" fill="white"/>
</clipPath>
<clipPath id="clip1_2340_286">
<path d="M48 12H64V28H48V12Z" fill="white"/>
</clipPath>
</defs>
</svg>
