<svg width="40" height="40" viewBox="0 0 40 40" fill="none" xmlns="http://www.w3.org/2000/svg">
<path d="M28 0C34.6274 0 40 5.37258 40 12V28C40 34.6274 34.6274 40 28 40H12C5.37258 40 0 34.6274 0 28V12C0 5.37258 5.37258 0 12 0H28Z" fill="url(#paint0_linear_2340_23)"/>
<path d="M28 0C34.6274 0 40 5.37258 40 12V28C40 34.6274 34.6274 40 28 40H12C5.37258 40 0 34.6274 0 28V12C0 5.37258 5.37258 0 12 0H28Z" stroke="#E5E7EB"/>
<path d="M29 34H11V6H29V34Z" stroke="#E5E7EB"/>
<g clip-path="url(#clip0_2340_23)">
<path d="M20 10.25C20.1617 10.25 20.3235 10.2852 20.4711 10.352L27.091 13.1609C27.8645 13.4879 28.441 14.2508 28.4375 15.1719C28.4199 18.6594 26.9856 25.0402 20.9281 27.9406C20.341 28.2219 19.659 28.2219 19.0719 27.9406C13.0145 25.0402 11.5801 18.6594 11.5625 15.1719C11.559 14.2508 12.1356 13.4879 12.909 13.1609L19.5324 10.352C19.6766 10.2852 19.8383 10.25 20 10.25ZM20 12.5984V25.8875C24.8516 23.5391 26.1559 18.3395 26.1875 15.2211L20 12.5984Z" fill="white"/>
</g>
<defs>
<linearGradient id="paint0_linear_2340_23" x1="0" y1="20" x2="40" y2="20" gradientUnits="userSpaceOnUse">
<stop stop-color="#0075FF"/>
<stop offset="1" stop-color="#8B5CF6"/>
</linearGradient>
<clipPath id="clip0_2340_23">
<path d="M11 10.25H29V28.25H11V10.25Z" fill="white"/>
</clipPath>
</defs>
</svg>
