<svg width="48" height="48" viewBox="0 0 48 48" fill="none" xmlns="http://www.w3.org/2000/svg">
<path d="M12 1H36C42.0751 1 47 5.92487 47 12V36C47 42.0751 42.0751 47 36 47H12C5.92487 47 1 42.0751 1 36V12C1 5.92487 5.92487 1 12 1Z" fill="#0075FF" fill-opacity="0.2"/>
<path d="M12 1H36C42.0751 1 47 5.92487 47 12V36C47 42.0751 42.0751 47 36 47H12C5.92487 47 1 42.0751 1 36V12C1 5.92487 5.92487 1 12 1Z" stroke="#0075FF" stroke-width="2"/>
<path d="M31 36H17V12H31V36Z" stroke="#E5E7EB"/>
<g clip-path="url(#clip0_2340_914)">
<path d="M27 17.5C27 17.1022 26.842 16.7206 26.5607 16.4393C26.2794 16.158 25.8978 16 25.5 16C25.1022 16 24.7206 16.158 24.4393 16.4393C24.158 16.7206 24 17.1022 24 17.5C24 17.8978 24.158 18.2794 24.4393 18.5607C24.7206 18.842 25.1022 19 25.5 19C25.8978 19 26.2794 18.842 26.5607 18.5607C26.842 18.2794 27 17.8978 27 17.5ZM20.9281 21.4844C21.2375 21.175 21.6594 21 22.1 21C22.1594 21 22.2188 21.0031 22.275 21.0094L21.3 23.9375C21.0094 24.8125 21.3531 25.775 22.1375 26.2656L24.8313 27.95L24.0375 30.725C23.8844 31.2563 24.1937 31.8094 24.725 31.9625C25.2563 32.1156 25.8094 31.8062 25.9625 31.275L26.8594 28.1375C27.0437 27.4937 26.7781 26.8062 26.2125 26.4531L24.4375 25.3438L25.4031 22.7688L25.5625 23.1531C26.0312 24.2719 27.1219 25 28.3344 25H29C29.5531 25 30 24.5531 30 24C30 23.4469 29.5531 23 29 23H28.3344C27.9313 23 27.5656 22.7562 27.4125 22.3844L27.2156 21.9156C26.7594 20.8188 25.8375 19.9812 24.7 19.6312L23.1781 19.1625C22.8312 19.0562 22.4688 19 22.1031 19C21.1344 19 20.2031 19.3844 19.5187 20.0719L18.7938 20.7937C18.4031 21.1844 18.4031 21.8187 18.7938 22.2094C19.1844 22.6 19.8187 22.6 20.2094 22.2094L20.9313 21.4875L20.9281 21.4844ZM19.85 27H18C17.4469 27 17 27.4469 17 28C17 28.5531 17.4469 29 18 29H20.175C20.7687 29 21.3063 28.65 21.5469 28.1094L21.9062 27.3L21.6094 27.1125C21.0625 26.7719 20.6562 26.275 20.425 25.7094L19.85 27Z" fill="#0075FF"/>
</g>
<defs>
<clipPath id="clip0_2340_914">
<path d="M17 16H31V32H17V16Z" fill="white"/>
</clipPath>
</defs>
</svg>
