<svg width="48" height="48" viewBox="0 0 48 48" fill="none" xmlns="http://www.w3.org/2000/svg">
<path d="M12 1H36C42.0751 1 47 5.92487 47 12V36C47 42.0751 42.0751 47 36 47H12C5.92487 47 1 42.0751 1 36V12C1 5.92487 5.92487 1 12 1Z" fill="#6B7280" fill-opacity="0.2"/>
<path d="M12 1H36C42.0751 1 47 5.92487 47 12V36C47 42.0751 42.0751 47 36 47H12C5.92487 47 1 42.0751 1 36V12C1 5.92487 5.92487 1 12 1Z" stroke="#6B7280" stroke-width="2"/>
<path d="M34 36H14V12H34V36Z" stroke="#E5E7EB"/>
<g clip-path="url(#clip0_2340_904)">
<path d="M15 20.5C15 22.9844 17.0156 25 19.5 25H23.3531C24.0594 25.6219 24.9844 26 26 26C27.0156 26 27.9406 25.6219 28.6469 25H29.5C31.4344 25 33 23.4344 33 21.5C33 19.5656 31.4344 18 29.5 18C29.1656 18 28.8438 18.0469 28.5375 18.1344C27.8688 16.8656 26.5344 16 25 16C23.9812 16 23.05 16.3812 22.3406 17.0094C21.5656 16.3781 20.5781 16 19.5 16C17.0156 16 15 18.0156 15 20.5ZM33.25 27.5H22.75C22.3344 27.5 22 27.8344 22 28.25C22 28.6656 22.3344 29 22.75 29H33.25C33.6656 29 34 28.6656 34 28.25C34 27.8344 33.6656 27.5 33.25 27.5ZM31.25 30.5H27.75C27.3344 30.5 27 30.8344 27 31.25C27 31.6656 27.3344 32 27.75 32H31.25C31.6656 32 32 31.6656 32 31.25C32 30.8344 31.6656 30.5 31.25 30.5ZM25.25 30.5H14.75C14.3344 30.5 14 30.8344 14 31.25C14 31.6656 14.3344 32 14.75 32H25.25C25.6656 32 26 31.6656 26 31.25C26 30.8344 25.6656 30.5 25.25 30.5ZM21 28.25C21 27.8344 20.6656 27.5 20.25 27.5H17C16.5844 27.5 16.25 27.8344 16.25 28.25C16.25 28.6656 16.5844 29 17 29H20.25C20.6656 29 21 28.6656 21 28.25Z" fill="#9CA3AF"/>
</g>
<defs>
<clipPath id="clip0_2340_904">
<path d="M14 16H34V32H14V16Z" fill="white"/>
</clipPath>
</defs>
</svg>
