<svg width="32" height="32" viewBox="0 0 32 32" fill="none" xmlns="http://www.w3.org/2000/svg">
<path d="M24 0C28.4183 0 32 3.58172 32 8V24C32 28.4183 28.4183 32 24 32H8C3.58172 32 0 28.4183 0 24V8C0 3.58172 3.58172 0 8 0H24Z" fill="#EF4444"/>
<path d="M24 0C28.4183 0 32 3.58172 32 8V24C32 28.4183 28.4183 32 24 32H8C3.58172 32 0 28.4183 0 24V8C0 3.58172 3.58172 0 8 0H24Z" stroke="#E5E7EB"/>
<path d="M21.25 26H10.75V6H21.25V26Z" stroke="#E5E7EB"/>
<g clip-path="url(#clip0_2340_556)">
<path d="M12.0625 8.75C11.3379 8.75 10.75 9.33789 10.75 10.0625V21.4375C10.75 22.1621 11.3379 22.75 12.0625 22.75H14.6875V20.5625C14.6875 19.8379 15.2754 19.25 16 19.25C16.7246 19.25 17.3125 19.8379 17.3125 20.5625V22.75H19.9375C20.6621 22.75 21.25 22.1621 21.25 21.4375V10.0625C21.25 9.33789 20.6621 8.75 19.9375 8.75H12.0625ZM12.5 15.3125C12.5 15.0719 12.6969 14.875 12.9375 14.875H13.8125C14.0531 14.875 14.25 15.0719 14.25 15.3125V16.1875C14.25 16.4281 14.0531 16.625 13.8125 16.625H12.9375C12.6969 16.625 12.5 16.4281 12.5 16.1875V15.3125ZM15.5625 14.875H16.4375C16.6781 14.875 16.875 15.0719 16.875 15.3125V16.1875C16.875 16.4281 16.6781 16.625 16.4375 16.625H15.5625C15.3219 16.625 15.125 16.4281 15.125 16.1875V15.3125C15.125 15.0719 15.3219 14.875 15.5625 14.875ZM17.75 15.3125C17.75 15.0719 17.9469 14.875 18.1875 14.875H19.0625C19.3031 14.875 19.5 15.0719 19.5 15.3125V16.1875C19.5 16.4281 19.3031 16.625 19.0625 16.625H18.1875C17.9469 16.625 17.75 16.4281 17.75 16.1875V15.3125ZM12.9375 11.375H13.8125C14.0531 11.375 14.25 11.5719 14.25 11.8125V12.6875C14.25 12.9281 14.0531 13.125 13.8125 13.125H12.9375C12.6969 13.125 12.5 12.9281 12.5 12.6875V11.8125C12.5 11.5719 12.6969 11.375 12.9375 11.375ZM15.125 11.8125C15.125 11.5719 15.3219 11.375 15.5625 11.375H16.4375C16.6781 11.375 16.875 11.5719 16.875 11.8125V12.6875C16.875 12.9281 16.6781 13.125 16.4375 13.125H15.5625C15.3219 13.125 15.125 12.9281 15.125 12.6875V11.8125ZM18.1875 11.375H19.0625C19.3031 11.375 19.5 11.5719 19.5 11.8125V12.6875C19.5 12.9281 19.3031 13.125 19.0625 13.125H18.1875C17.9469 13.125 17.75 12.9281 17.75 12.6875V11.8125C17.75 11.5719 17.9469 11.375 18.1875 11.375Z" fill="white"/>
</g>
<defs>
<clipPath id="clip0_2340_556">
<path d="M10.75 8.75H21.25V22.75H10.75V8.75Z" fill="white"/>
</clipPath>
</defs>
</svg>
