<svg width="40" height="40" viewBox="0 0 40 40" fill="none" xmlns="http://www.w3.org/2000/svg">
<path d="M28 0C34.6274 0 40 5.37258 40 12V28C40 34.6274 34.6274 40 28 40H12C5.37258 40 0 34.6274 0 28V12C0 5.37258 5.37258 0 12 0H28Z" fill="#06B6D4"/>
<path d="M28 0C34.6274 0 40 5.37258 40 12V28C40 34.6274 34.6274 40 28 40H12C5.37258 40 0 34.6274 0 28V12C0 5.37258 5.37258 0 12 0H28Z" stroke="#E5E7EB"/>
<path d="M29 32H11V8H29V32Z" stroke="#E5E7EB"/>
<g clip-path="url(#clip0_2340_897)">
<path d="M20.0002 13C17.4752 13 15.4533 14.15 13.9814 15.5187C12.5189 16.875 11.5408 18.5 11.0783 19.6156C10.9752 19.8625 10.9752 20.1375 11.0783 20.3844C11.5408 21.5 12.5189 23.125 13.9814 24.4812C15.4533 25.85 17.4752 27 20.0002 27C22.5252 27 24.5471 25.85 26.0189 24.4812C27.4814 23.1219 28.4596 21.5 28.9252 20.3844C29.0283 20.1375 29.0283 19.8625 28.9252 19.6156C28.4596 18.5 27.4814 16.875 26.0189 15.5187C24.5471 14.15 22.5252 13 20.0002 13ZM15.5002 20C15.5002 18.8065 15.9743 17.6619 16.8182 16.818C17.6621 15.9741 18.8067 15.5 20.0002 15.5C21.1937 15.5 22.3383 15.9741 23.1822 16.818C24.0261 17.6619 24.5002 18.8065 24.5002 20C24.5002 21.1935 24.0261 22.3381 23.1822 23.182C22.3383 24.0259 21.1937 24.5 20.0002 24.5C18.8067 24.5 17.6621 24.0259 16.8182 23.182C15.9743 22.3381 15.5002 21.1935 15.5002 20ZM20.0002 18C20.0002 19.1031 19.1033 20 18.0002 20C17.7783 20 17.5658 19.9625 17.3658 19.8969C17.1939 19.8406 16.9939 19.9469 17.0002 20.1281C17.0096 20.3438 17.0408 20.5594 17.1002 20.775C17.5283 22.375 19.1752 23.325 20.7752 22.8969C22.3752 22.4688 23.3252 20.8219 22.8971 19.2219C22.5502 17.925 21.4033 17.0531 20.1283 17C19.9471 16.9938 19.8408 17.1906 19.8971 17.3656C19.9627 17.5656 20.0002 17.7781 20.0002 18Z" fill="white"/>
</g>
<defs>
<clipPath id="clip0_2340_897">
<path d="M11 12H29V28H11V12Z" fill="white"/>
</clipPath>
</defs>
</svg>
