<svg width="24" height="40" viewBox="0 0 24 40" fill="none" xmlns="http://www.w3.org/2000/svg">
<path d="M11.8125 0C18.3364 0 23.625 5.28864 23.625 11.8125V28.1875C23.625 34.7114 18.3364 40 11.8125 40C5.28864 40 0 34.7114 0 28.1875V11.8125C5.15406e-07 5.28864 5.28864 0 11.8125 0Z" fill="#FF7A00"/>
<path d="M11.8125 0C18.3364 0 23.625 5.28864 23.625 11.8125V28.1875C23.625 34.7114 18.3364 40 11.8125 40C5.28864 40 0 34.7114 0 28.1875V11.8125C5.15406e-07 5.28864 5.28864 0 11.8125 0Z" stroke="#E5E7EB"/>
<path d="M19.8125 32H3.8125V8H19.8125V32Z" stroke="#E5E7EB"/>
<g clip-path="url(#clip0_2340_848)">
<path d="M11.8125 12C11.9563 12 12.1 12.0313 12.2313 12.0906L18.1156 14.5875C18.8031 14.8781 19.3156 15.5563 19.3125 16.375C19.2969 19.475 18.0219 25.1469 12.6375 27.725C12.1156 27.975 11.5094 27.975 10.9875 27.725C5.60314 25.1469 4.32814 19.475 4.31251 16.375C4.30939 15.5563 4.82189 14.8781 5.50939 14.5875L11.3969 12.0906C11.525 12.0313 11.6688 12 11.8125 12ZM11.8125 14.0875V25.9C16.125 23.8125 17.2844 19.1906 17.3125 16.4187L11.8125 14.0875Z" fill="white"/>
</g>
<defs>
<clipPath id="clip0_2340_848">
<path d="M3.8125 12H19.8125V28H3.8125V12Z" fill="white"/>
</clipPath>
</defs>
</svg>
