<svg width="24" height="24" viewBox="0 0 24 24" fill="none" xmlns="http://www.w3.org/2000/svg">
<path d="M16 0C20.4183 0 24 3.58172 24 8V16C24 20.4183 20.4183 24 16 24H8C3.58172 24 0 20.4183 0 16V8C0 3.58172 3.58172 0 8 0H16Z" fill="#FF7A00" fill-opacity="0.2"/>
<path d="M16 0C20.4183 0 24 3.58172 24 8V16C24 20.4183 20.4183 24 16 24H8C3.58172 24 0 20.4183 0 16V8C0 3.58172 3.58172 0 8 0H16Z" stroke="#E5E7EB"/>
<path d="M19.5 20H4.5V4H19.5V20Z" stroke="#E5E7EB"/>
<g clip-path="url(#clip0_2340_665)">
<path d="M5.625 5.5C5.00391 5.5 4.5 6.00391 4.5 6.625V14.125C4.5 14.7461 5.00391 15.25 5.625 15.25H6C6 16.4922 7.00781 17.5 8.25 17.5C9.49219 17.5 10.5 16.4922 10.5 15.25H13.5C13.5 16.4922 14.5078 17.5 15.75 17.5C16.9922 17.5 18 16.4922 18 15.25H18.75C19.1648 15.25 19.5 14.9148 19.5 14.5C19.5 14.0852 19.1648 13.75 18.75 13.75V12.25V11.5V11.0617C18.75 10.6633 18.593 10.2812 18.3117 10L16.5 8.18828C16.2188 7.90703 15.8367 7.75 15.4383 7.75H14.25V6.625C14.25 6.00391 13.7461 5.5 13.125 5.5H5.625ZM14.25 9.25H15.4383L17.25 11.0617V11.5H14.25V9.25ZM7.125 15.25C7.125 14.9516 7.24353 14.6655 7.4545 14.4545C7.66548 14.2435 7.95163 14.125 8.25 14.125C8.54837 14.125 8.83452 14.2435 9.0455 14.4545C9.25647 14.6655 9.375 14.9516 9.375 15.25C9.375 15.5484 9.25647 15.8345 9.0455 16.0455C8.83452 16.2565 8.54837 16.375 8.25 16.375C7.95163 16.375 7.66548 16.2565 7.4545 16.0455C7.24353 15.8345 7.125 15.5484 7.125 15.25ZM15.75 14.125C16.0484 14.125 16.3345 14.2435 16.5455 14.4545C16.7565 14.6655 16.875 14.9516 16.875 15.25C16.875 15.5484 16.7565 15.8345 16.5455 16.0455C16.3345 16.2565 16.0484 16.375 15.75 16.375C15.4516 16.375 15.1655 16.2565 14.9545 16.0455C14.7435 15.8345 14.625 15.5484 14.625 15.25C14.625 14.9516 14.7435 14.6655 14.9545 14.4545C15.1655 14.2435 15.4516 14.125 15.75 14.125Z" fill="#FF7A00"/>
</g>
<defs>
<clipPath id="clip0_2340_665">
<path d="M4.5 5.5H19.5V17.5H4.5V5.5Z" fill="white"/>
</clipPath>
</defs>
</svg>
