<svg width="48" height="48" viewBox="0 0 48 48" fill="none" xmlns="http://www.w3.org/2000/svg">
<path d="M12 1H36C42.0751 1 47 5.92487 47 12V36C47 42.0751 42.0751 47 36 47H12C5.92487 47 1 42.0751 1 36V12C1 5.92487 5.92487 1 12 1Z" fill="#FF7A00" fill-opacity="0.2"/>
<path d="M12 1H36C42.0751 1 47 5.92487 47 12V36C47 42.0751 42.0751 47 36 47H12C5.92487 47 1 42.0751 1 36V12C1 5.92487 5.92487 1 12 1Z" stroke="#FF7A00" stroke-width="2"/>
<path d="M32 36H16V12H32V36Z" stroke="#E5E7EB"/>
<g clip-path="url(#clip0_2340_909)">
<path d="M25 16C25.5531 16 26 16.4469 26 17V17.3062C26 19.0125 25.1281 20.575 23.7344 21.4812L23.7406 21.4906L25.5156 24H28.25C28.7219 24 29.1656 24.2219 29.45 24.6L30.8 26.4C31.1313 26.8406 31.0406 27.4688 30.6 27.8C30.1594 28.1313 29.5312 28.0406 29.2 27.6L28 26H25H24.9563L27.8406 30.4563C28.1406 30.9187 28.0094 31.5375 27.5437 31.8406C27.0781 32.1437 26.4625 32.0094 26.1594 31.5437L21.1406 23.7875C21.05 24.075 21 24.3813 21 24.6938V27C21 27.5531 20.5531 28 20 28C19.4469 28 19 27.5531 19 27V24.6938C19 22.6594 20.2375 20.8281 22.1281 20.0719C23.2594 19.6188 24 18.525 24 17.3062V17C24 16.4469 24.4469 16 25 16ZM19.5 17C19.8978 17 20.2794 17.158 20.5607 17.4393C20.842 17.7206 21 18.1022 21 18.5C21 18.8978 20.842 19.2794 20.5607 19.5607C20.2794 19.842 19.8978 20 19.5 20C19.1022 20 18.7206 19.842 18.4393 19.5607C18.158 19.2794 18 18.8978 18 18.5C18 18.1022 18.158 17.7206 18.4393 17.4393C18.7206 17.158 19.1022 17 19.5 17Z" fill="#FF7A00"/>
</g>
<defs>
<clipPath id="clip0_2340_909">
<path d="M16 16H32V32H16V16Z" fill="white"/>
</clipPath>
</defs>
</svg>
