<svg width="24" height="24" viewBox="0 0 24 24" fill="none" xmlns="http://www.w3.org/2000/svg">
<path d="M16 0C20.4183 0 24 3.58172 24 8V16C24 20.4183 20.4183 24 16 24H8C3.58172 24 0 20.4183 0 16V8C0 3.58172 3.58172 0 8 0H16Z" fill="#06B6D4" fill-opacity="0.2"/>
<path d="M16 0C20.4183 0 24 3.58172 24 8V16C24 20.4183 20.4183 24 16 24H8C3.58172 24 0 20.4183 0 16V8C0 3.58172 3.58172 0 8 0H16Z" stroke="#E5E7EB"/>
<path d="M18.75 20H5.25V4H18.75V20Z" stroke="#E5E7EB"/>
<g clip-path="url(#clip0_2340_674)">
<path d="M12 5.5C15.15 5.5 17.25 6.325 17.25 7.375V7.75V8.5C17.6648 8.5 18 8.83516 18 9.25V10.75C18 11.1648 17.6648 11.5 17.25 11.5V15.25C17.25 15.6648 16.9148 16 16.5 16V16.75C16.5 17.1648 16.1648 17.5 15.75 17.5H15C14.5852 17.5 14.25 17.1648 14.25 16.75V16H9.75V16.75C9.75 17.1648 9.41484 17.5 9 17.5H8.25C7.83516 17.5 7.5 17.1648 7.5 16.75V16C7.08516 16 6.75 15.6648 6.75 15.25V11.5C6.33516 11.5 6 11.1648 6 10.75V9.25C6 8.83516 6.33516 8.5 6.75 8.5V7.75V7.375C6.75 6.325 8.85 5.5 12 5.5ZM8.25 9.25V11.5C8.25 11.9148 8.58516 12.25 9 12.25H11.625V8.5H9C8.58516 8.5 8.25 8.83516 8.25 9.25ZM12.375 12.25H15C15.4148 12.25 15.75 11.9148 15.75 11.5V9.25C15.75 8.83516 15.4148 8.5 15 8.5H12.375V12.25ZM8.625 14.875C8.82391 14.875 9.01468 14.796 9.15533 14.6553C9.29598 14.5147 9.375 14.3239 9.375 14.125C9.375 13.9261 9.29598 13.7353 9.15533 13.5947C9.01468 13.454 8.82391 13.375 8.625 13.375C8.42609 13.375 8.23532 13.454 8.09467 13.5947C7.95402 13.7353 7.875 13.9261 7.875 14.125C7.875 14.3239 7.95402 14.5147 8.09467 14.6553C8.23532 14.796 8.42609 14.875 8.625 14.875ZM15.375 14.875C15.5739 14.875 15.7647 14.796 15.9053 14.6553C16.046 14.5147 16.125 14.3239 16.125 14.125C16.125 13.9261 16.046 13.7353 15.9053 13.5947C15.7647 13.454 15.5739 13.375 15.375 13.375C15.1761 13.375 14.9853 13.454 14.8447 13.5947C14.704 13.7353 14.625 13.9261 14.625 14.125C14.625 14.3239 14.704 14.5147 14.8447 14.6553C14.9853 14.796 15.1761 14.875 15.375 14.875ZM14.25 7.375C14.25 7.16875 14.0813 7 13.875 7H10.125C9.91875 7 9.75 7.16875 9.75 7.375C9.75 7.58125 9.91875 7.75 10.125 7.75H13.875C14.0813 7.75 14.25 7.58125 14.25 7.375Z" fill="#06B6D4"/>
</g>
<defs>
<clipPath id="clip0_2340_674">
<path d="M5.25 5.5H18.75V17.5H5.25V5.5Z" fill="white"/>
</clipPath>
</defs>
</svg>
