<svg width="36" height="40" viewBox="0 0 36 40" fill="none" xmlns="http://www.w3.org/2000/svg">
<path d="M17.9219 0C27.8199 0 35.8438 8.0239 35.8438 17.9219V22.0781C35.8438 31.9761 27.8199 40 17.9219 40C8.0239 40 0 31.9761 0 22.0781V17.9219C0 8.0239 8.0239 0 17.9219 0Z" fill="#EF4444" fill-opacity="0.2"/>
<path d="M17.9219 0C27.8199 0 35.8438 8.0239 35.8438 17.9219V22.0781C35.8438 31.9761 27.8199 40 17.9219 40C8.0239 40 0 31.9761 0 22.0781V17.9219C0 8.0239 8.0239 0 17.9219 0Z" stroke="#E5E7EB"/>
<path d="M25.9219 32H9.92188V8H25.9219V32Z" stroke="#E5E7EB"/>
<g clip-path="url(#clip0_2340_329)">
<path d="M17.9217 13C18.3654 13 18.7748 13.2344 18.9998 13.6187L25.7498 25.1187C25.9779 25.5062 25.9779 25.9844 25.7561 26.3719C25.5342 26.7594 25.1186 27 24.6717 27H11.1717C10.7248 27 10.3092 26.7594 10.0873 26.3719C9.86545 25.9844 9.86857 25.5031 10.0936 25.1187L16.8436 13.6187C17.0686 13.2344 17.4779 13 17.9217 13ZM17.9217 17C17.5061 17 17.1717 17.3344 17.1717 17.75V21.25C17.1717 21.6656 17.5061 22 17.9217 22C18.3373 22 18.6717 21.6656 18.6717 21.25V17.75C18.6717 17.3344 18.3373 17 17.9217 17ZM18.9217 24C18.9217 23.7348 18.8163 23.4804 18.6288 23.2929C18.4413 23.1054 18.1869 23 17.9217 23C17.6565 23 17.4021 23.1054 17.2146 23.2929C17.0271 23.4804 16.9217 23.7348 16.9217 24C16.9217 24.2652 17.0271 24.5196 17.2146 24.7071C17.4021 24.8946 17.6565 25 17.9217 25C18.1869 25 18.4413 24.8946 18.6288 24.7071C18.8163 24.5196 18.9217 24.2652 18.9217 24Z" fill="#EF4444"/>
</g>
<defs>
<clipPath id="clip0_2340_329">
<path d="M9.92188 12H25.9219V28H9.92188V12Z" fill="white"/>
</clipPath>
</defs>
</svg>
