<svg width="42" height="20" viewBox="0 0 42 20" fill="none" xmlns="http://www.w3.org/2000/svg">
<path d="M41.25 20H0V0H41.25V20Z" stroke="#E5E7EB"/>
<path d="M15.75 20H0V0H15.75V20Z" stroke="#E5E7EB"/>
<path d="M15.75 18H0V1H15.75V18Z" stroke="#E5E7EB"/>
<g clip-path="url(#clip0_2340_701)">
<path d="M7.87529 3.625C5.66592 3.625 3.89678 4.63125 2.60889 5.82891C1.3292 7.01562 0.47334 8.4375 0.0686523 9.41367C-0.021582 9.62969 -0.021582 9.87031 0.0686523 10.0863C0.47334 11.0625 1.3292 12.4844 2.60889 13.6711C3.89678 14.8687 5.66592 15.875 7.87529 15.875C10.0847 15.875 11.8538 14.8687 13.1417 13.6711C14.4214 12.4816 15.2772 11.0625 15.6847 10.0863C15.7749 9.87031 15.7749 9.62969 15.6847 9.41367C15.2772 8.4375 14.4214 7.01562 13.1417 5.82891C11.8538 4.63125 10.0847 3.625 7.87529 3.625ZM3.93779 9.75C3.93779 8.70571 4.35264 7.70419 5.09106 6.96577C5.82948 6.22734 6.831 5.8125 7.87529 5.8125C8.91958 5.8125 9.9211 6.22734 10.6595 6.96577C11.398 7.70419 11.8128 8.70571 11.8128 9.75C11.8128 10.7943 11.398 11.7958 10.6595 12.5342C9.9211 13.2727 8.91958 13.6875 7.87529 13.6875C6.831 13.6875 5.82948 13.2727 5.09106 12.5342C4.35264 11.7958 3.93779 10.7943 3.93779 9.75ZM7.87529 8C7.87529 8.96523 7.09053 9.75 6.12529 9.75C5.93115 9.75 5.74521 9.71719 5.57021 9.65977C5.41982 9.61055 5.24482 9.70352 5.25029 9.86211C5.2585 10.0508 5.28584 10.2395 5.33779 10.4281C5.7124 11.8281 7.15342 12.6594 8.55342 12.2848C9.95342 11.9102 10.7847 10.4691 10.4101 9.06914C10.1065 7.93438 9.10303 7.17148 7.9874 7.125C7.82881 7.11953 7.73584 7.2918 7.78506 7.44492C7.84248 7.61992 7.87529 7.80586 7.87529 8Z" fill="#0075FF"/>
</g>
<path d="M41.25 20H23.75V0H41.25V20Z" stroke="#E5E7EB"/>
<path d="M41.25 18H23.75V1H41.25V18Z" stroke="#E5E7EB"/>
<g clip-path="url(#clip1_2340_701)">
<path d="M26.375 6.25C26.375 5.32174 26.7437 4.4315 27.4001 3.77513C28.0565 3.11875 28.9467 2.75 29.875 2.75C30.8033 2.75 31.6935 3.11875 32.3499 3.77513C33.0063 4.4315 33.375 5.32174 33.375 6.25C33.375 7.17826 33.0063 8.0685 32.3499 8.72487C31.6935 9.38125 30.8033 9.75 29.875 9.75C28.9467 9.75 28.0565 9.38125 27.4001 8.72487C26.7437 8.0685 26.375 7.17826 26.375 6.25ZM23.75 15.9379C23.75 13.2445 25.932 11.0625 28.6254 11.0625H31.1246C33.818 11.0625 36 13.2445 36 15.9379C36 16.3863 35.6363 16.75 35.1879 16.75H24.5621C24.1137 16.75 23.75 16.3863 23.75 15.9379ZM37.5312 11.2812V9.53125H35.7812C35.4176 9.53125 35.125 9.23867 35.125 8.875C35.125 8.51133 35.4176 8.21875 35.7812 8.21875H37.5312V6.46875C37.5312 6.10508 37.8238 5.8125 38.1875 5.8125C38.5512 5.8125 38.8438 6.10508 38.8438 6.46875V8.21875H40.5938C40.9574 8.21875 41.25 8.51133 41.25 8.875C41.25 9.23867 40.9574 9.53125 40.5938 9.53125H38.8438V11.2812C38.8438 11.6449 38.5512 11.9375 38.1875 11.9375C37.8238 11.9375 37.5312 11.6449 37.5312 11.2812Z" fill="#FF7A00"/>
</g>
<defs>
<clipPath id="clip0_2340_701">
<path d="M0 2.75H15.75V16.75H0V2.75Z" fill="white"/>
</clipPath>
<clipPath id="clip1_2340_701">
<path d="M23.75 2.75H41.25V16.75H23.75V2.75Z" fill="white"/>
</clipPath>
</defs>
</svg>
