<svg width="32" height="32" viewBox="0 0 32 32" fill="none" xmlns="http://www.w3.org/2000/svg">
<path d="M24 0C28.4183 0 32 3.58172 32 8V24C32 28.4183 28.4183 32 24 32H8C3.58172 32 0 28.4183 0 24V8C0 3.58172 3.58172 0 8 0H24Z" fill="#0075FF"/>
<path d="M24 0C28.4183 0 32 3.58172 32 8V24C32 28.4183 28.4183 32 24 32H8C3.58172 32 0 28.4183 0 24V8C0 3.58172 3.58172 0 8 0H24Z" stroke="#E5E7EB"/>
<path d="M24.75 26H7.25V6H24.75V26Z" stroke="#E5E7EB"/>
<g clip-path="url(#clip0_2340_568)">
<path d="M7.25 22.0939V13.4342C7.25 12.7178 7.68477 12.0752 8.34922 11.81L15.6746 8.88145C15.8824 8.79668 16.1148 8.79668 16.3254 8.88145L23.6508 11.81C24.3152 12.0752 24.75 12.7205 24.75 13.4342V22.0939C24.75 22.4576 24.4574 22.7502 24.0938 22.7502H22.7812C22.4176 22.7502 22.125 22.4576 22.125 22.0939V14.8752C22.125 14.3912 21.734 14.0002 21.25 14.0002H10.75C10.266 14.0002 9.875 14.3912 9.875 14.8752V22.0939C9.875 22.4576 9.58242 22.7502 9.21875 22.7502H7.90625C7.54258 22.7502 7.25 22.4576 7.25 22.0939ZM20.5938 22.7502H11.4062C11.0426 22.7502 10.75 22.4576 10.75 22.0939V20.5627H21.25V22.0939C21.25 22.4576 20.9574 22.7502 20.5938 22.7502ZM10.75 19.6877V17.9377H21.25V19.6877H10.75ZM10.75 17.0627V14.8752H21.25V17.0627H10.75Z" fill="white"/>
</g>
<defs>
<clipPath id="clip0_2340_568">
<path d="M7.25 8.75H24.75V22.75H7.25V8.75Z" fill="white"/>
</clipPath>
</defs>
</svg>
