<svg width="34" height="40" viewBox="0 0 34 40" fill="none" xmlns="http://www.w3.org/2000/svg">
<path d="M21.1094 0C27.7368 0 33.1094 5.37258 33.1094 12V28C33.1094 34.6274 27.7368 40 21.1094 40H12C5.37258 40 0 34.6274 0 28V12C0 5.37258 5.37258 0 12 0H21.1094Z" fill="#0075FF"/>
<path d="M21.1094 0C27.7368 0 33.1094 5.37258 33.1094 12V28C33.1094 34.6274 27.7368 40 21.1094 40H12C5.37258 40 0 34.6274 0 28V12C0 5.37258 5.37258 0 12 0H21.1094Z" stroke="#E5E7EB"/>
<path d="M26.5469 32H6.54688V8H26.5469V32Z" stroke="#E5E7EB"/>
<g clip-path="url(#clip0_2340_874)">
<path d="M11.0469 12C11.7099 12 12.3458 12.2634 12.8146 12.7322C13.2835 13.2011 13.5469 13.837 13.5469 14.5C13.5469 15.163 13.2835 15.7989 12.8146 16.2678C12.3458 16.7366 11.7099 17 11.0469 17C10.3838 17 9.74795 16.7366 9.27911 16.2678C8.81027 15.7989 8.54688 15.163 8.54688 14.5C8.54688 13.837 8.81027 13.2011 9.27911 12.7322C9.74795 12.2634 10.3838 12 11.0469 12ZM22.5469 12C23.2099 12 23.8458 12.2634 24.3146 12.7322C24.7835 13.2011 25.0469 13.837 25.0469 14.5C25.0469 15.163 24.7835 15.7989 24.3146 16.2678C23.8458 16.7366 23.2099 17 22.5469 17C21.8838 17 21.2479 16.7366 20.7791 16.2678C20.3103 15.7989 20.0469 15.163 20.0469 14.5C20.0469 13.837 20.3103 13.2011 20.7791 12.7322C21.2479 12.2634 21.8838 12 22.5469 12ZM6.54688 21.3344C6.54688 19.4938 8.04062 18 9.88125 18H11.2156C11.7125 18 12.1844 18.1094 12.6094 18.3031C12.5687 18.5281 12.55 18.7625 12.55 19C12.55 20.1938 13.075 21.2656 13.9031 22C13.8969 22 13.8906 22 13.8812 22H7.2125C6.84687 22 6.54688 21.7 6.54688 21.3344ZM19.2125 22C19.2062 22 19.2 22 19.1906 22C20.0219 21.2656 20.5437 20.1938 20.5437 19C20.5437 18.7625 20.5219 18.5312 20.4844 18.3031C20.9094 18.1062 21.3813 18 21.8781 18H23.2125C25.0531 18 26.5469 19.4938 26.5469 21.3344C26.5469 21.7031 26.2469 22 25.8813 22H19.2125ZM13.5469 19C13.5469 18.2044 13.8629 17.4413 14.4256 16.8787C14.9882 16.3161 15.7512 16 16.5469 16C17.3425 16 18.1056 16.3161 18.6682 16.8787C19.2308 17.4413 19.5469 18.2044 19.5469 19C19.5469 19.7956 19.2308 20.5587 18.6682 21.1213C18.1056 21.6839 17.3425 22 16.5469 22C15.7512 22 14.9882 21.6839 14.4256 21.1213C13.8629 20.5587 13.5469 19.7956 13.5469 19ZM10.5469 27.1656C10.5469 24.8656 12.4125 23 14.7125 23H18.3813C20.6813 23 22.5469 24.8656 22.5469 27.1656C22.5469 27.625 22.175 28 21.7125 28H11.3812C10.9219 28 10.5469 27.6281 10.5469 27.1656Z" fill="white"/>
</g>
<defs>
<clipPath id="clip0_2340_874">
<path d="M6.54688 12H26.5469V28H6.54688V12Z" fill="white"/>
</clipPath>
</defs>
</svg>
