<svg width="18" height="20" viewBox="0 0 18 20" fill="none" xmlns="http://www.w3.org/2000/svg">
<path d="M17.5 20H0V0H17.5V20Z" stroke="#E5E7EB"/>
<g clip-path="url(#clip0_2340_1068)">
<path d="M0.875 6.6875C0.875 8.86133 2.63867 10.625 4.8125 10.625H8.18398C8.80195 11.1691 9.61133 11.5 10.5 11.5C11.3887 11.5 12.198 11.1691 12.816 10.625H13.5625C15.2551 10.625 16.625 9.25508 16.625 7.5625C16.625 5.86992 15.2551 4.5 13.5625 4.5C13.2699 4.5 12.9883 4.54102 12.7203 4.61758C12.1352 3.50742 10.9676 2.75 9.625 2.75C8.73359 2.75 7.91875 3.08359 7.29805 3.6332C6.61992 3.08086 5.75586 2.75 4.8125 2.75C2.63867 2.75 0.875 4.51367 0.875 6.6875ZM16.8438 12.8125H7.65625C7.29258 12.8125 7 13.1051 7 13.4688C7 13.8324 7.29258 14.125 7.65625 14.125H16.8438C17.2074 14.125 17.5 13.8324 17.5 13.4688C17.5 13.1051 17.2074 12.8125 16.8438 12.8125ZM15.0938 15.4375H12.0312C11.6676 15.4375 11.375 15.7301 11.375 16.0938C11.375 16.4574 11.6676 16.75 12.0312 16.75H15.0938C15.4574 16.75 15.75 16.4574 15.75 16.0938C15.75 15.7301 15.4574 15.4375 15.0938 15.4375ZM9.84375 15.4375H0.65625C0.292578 15.4375 0 15.7301 0 16.0938C0 16.4574 0.292578 16.75 0.65625 16.75H9.84375C10.2074 16.75 10.5 16.4574 10.5 16.0938C10.5 15.7301 10.2074 15.4375 9.84375 15.4375ZM6.125 13.4688C6.125 13.1051 5.83242 12.8125 5.46875 12.8125H2.625C2.26133 12.8125 1.96875 13.1051 1.96875 13.4688C1.96875 13.8324 2.26133 14.125 2.625 14.125H5.46875C5.83242 14.125 6.125 13.8324 6.125 13.4688Z" fill="#9CA3AF"/>
</g>
<defs>
<clipPath id="clip0_2340_1068">
<path d="M0 2.75H17.5V16.75H0V2.75Z" fill="white"/>
</clipPath>
</defs>
</svg>
