<svg width="13" height="20" viewBox="0 0 13 20" fill="none" xmlns="http://www.w3.org/2000/svg">
<path d="M12.25 20H0V0H12.25V20Z" stroke="#E5E7EB"/>
<g clip-path="url(#clip0_2340_312)">
<path d="M4.15625 3.40625C4.15625 3.04258 3.86367 2.75 3.5 2.75C3.13633 2.75 2.84375 3.04258 2.84375 3.40625V4.5H1.75C0.784766 4.5 0 5.28477 0 6.25V6.6875V8V15C0 15.9652 0.784766 16.75 1.75 16.75H10.5C11.4652 16.75 12.25 15.9652 12.25 15V8V6.6875V6.25C12.25 5.28477 11.4652 4.5 10.5 4.5H9.40625V3.40625C9.40625 3.04258 9.11367 2.75 8.75 2.75C8.38633 2.75 8.09375 3.04258 8.09375 3.40625V4.5H4.15625V3.40625ZM1.3125 8H10.9375V15C10.9375 15.2406 10.7406 15.4375 10.5 15.4375H1.75C1.50937 15.4375 1.3125 15.2406 1.3125 15V8Z" fill="#94A3B8"/>
</g>
<defs>
<clipPath id="clip0_2340_312">
<path d="M0 2.75H12.25V16.75H0V2.75Z" fill="white"/>
</clipPath>
</defs>
</svg>
