<svg width="16" height="20" viewBox="0 0 16 20" fill="none" xmlns="http://www.w3.org/2000/svg">
<path d="M15.75 20H0V0H15.75V20Z" stroke="#E5E7EB"/>
<g clip-path="url(#clip0_2340_677)">
<path d="M7 2.75H8.75C9.23398 2.75 9.625 3.14102 9.625 3.625V5.375C9.625 5.85898 9.23398 6.25 8.75 6.25H7C6.51602 6.25 6.125 5.85898 6.125 5.375V3.625C6.125 3.14102 6.51602 2.75 7 2.75ZM1.75 4.5H5.25V5.8125C5.25 6.53711 5.83789 7.125 6.5625 7.125H9.1875C9.91211 7.125 10.5 6.53711 10.5 5.8125V4.5H14C14.9652 4.5 15.75 5.28477 15.75 6.25V15C15.75 15.9652 14.9652 16.75 14 16.75H1.75C0.784766 16.75 0 15.9652 0 15V6.25C0 5.28477 0.784766 4.5 1.75 4.5ZM4.8125 14.7074C4.8125 14.8687 4.94375 15 5.10508 15H10.6449C10.8062 15 10.9375 14.8687 10.9375 14.7074C10.9375 13.9008 10.284 13.25 9.48008 13.25H6.26992C5.46328 13.25 4.8125 13.9035 4.8125 14.7074ZM7.875 12.375C8.33913 12.375 8.78425 12.1906 9.11244 11.8624C9.44063 11.5342 9.625 11.0891 9.625 10.625C9.625 10.1609 9.44063 9.71575 9.11244 9.38756C8.78425 9.05937 8.33913 8.875 7.875 8.875C7.41087 8.875 6.96575 9.05937 6.63756 9.38756C6.30937 9.71575 6.125 10.1609 6.125 10.625C6.125 11.0891 6.30937 11.5342 6.63756 11.8624C6.96575 12.1906 7.41087 12.375 7.875 12.375Z" fill="#0075FF"/>
</g>
<defs>
<clipPath id="clip0_2340_677">
<path d="M0 2.75H15.75V16.75H0V2.75Z" fill="white"/>
</clipPath>
</defs>
</svg>
