<svg width="24" height="32" viewBox="0 0 24 32" fill="none" xmlns="http://www.w3.org/2000/svg">
<g opacity="0.8">
<path d="M24 32H0V0H24V32Z" stroke="#E5E7EB"/>
<g clip-path="url(#clip0_2340_175)">
<path d="M12.0002 4.5C12.6658 4.5 13.2799 4.85156 13.6174 5.42812L23.7424 22.6781C24.0846 23.2594 24.0846 23.9766 23.7518 24.5578C23.419 25.1391 22.7955 25.5 22.1252 25.5H1.87522C1.20491 25.5 0.581473 25.1391 0.24866 24.5578C-0.084152 23.9766 -0.0794645 23.2547 0.258035 22.6781L10.383 5.42812C10.7205 4.85156 11.3346 4.5 12.0002 4.5ZM12.0002 10.5C11.3768 10.5 10.8752 11.0016 10.8752 11.625V16.875C10.8752 17.4984 11.3768 18 12.0002 18C12.6237 18 13.1252 17.4984 13.1252 16.875V11.625C13.1252 11.0016 12.6237 10.5 12.0002 10.5ZM13.5002 21C13.5002 20.6022 13.3422 20.2206 13.0609 19.9393C12.7796 19.658 12.398 19.5 12.0002 19.5C11.6024 19.5 11.2209 19.658 10.9396 19.9393C10.6583 20.2206 10.5002 20.6022 10.5002 21C10.5002 21.3978 10.6583 21.7794 10.9396 22.0607C11.2209 22.342 11.6024 22.5 12.0002 22.5C12.398 22.5 12.7796 22.342 13.0609 22.0607C13.3422 21.7794 13.5002 21.3978 13.5002 21Z" fill="white"/>
</g>
</g>
<defs>
<clipPath id="clip0_2340_175">
<path d="M0 3H24V27H0V3Z" fill="white"/>
</clipPath>
</defs>
</svg>
