<svg width="13" height="20" viewBox="0 0 13 20" fill="none" xmlns="http://www.w3.org/2000/svg">
<path d="M5.66289 9.24141L4.13438 4.65586C4.61016 4.9293 5.26641 5.15625 6.125 5.15625C6.98359 5.15625 7.63984 4.9293 8.11562 4.65586L6.19336 10.4227C6.14961 10.5566 6.125 10.6961 6.125 10.8383V15.4375C6.125 16.1621 6.71289 16.75 7.4375 16.75H10.9375C11.6621 16.75 12.25 16.1621 12.25 15.4375V10.1465C12.25 9.88672 12.1734 9.63516 12.0285 9.41914L10.7188 7.45586C10.5738 7.23984 10.4973 6.98828 10.4973 6.72852V6.25V4.23477V4.0625C10.4973 3.33789 9.90938 2.75 9.18477 2.75H9.06172C9.05625 2.75 9.05078 2.75 9.04531 2.75C9.03437 2.75 9.02344 2.75 9.0125 2.75C8.50391 2.75 8.08555 3.01523 7.81211 3.26406C7.55781 3.49375 7.03281 3.84375 6.125 3.84375C5.21719 3.84375 4.69219 3.49375 4.43789 3.26406C4.16445 3.01523 3.74609 2.75 3.23477 2.75C3.22383 2.75 3.21289 2.75 3.20195 2.75C3.19648 2.75 3.19102 2.75 3.18555 2.75H3.0625C2.33789 2.75 1.75 3.33789 1.75 4.0625V4.23477V6.25V6.72852C1.75 6.98828 1.67344 7.23984 1.52852 7.45586L0.221484 9.41914C0.0765625 9.63516 0 9.88945 0 10.1465V15.4375C0 16.1621 0.587891 16.75 1.3125 16.75H4.8125C5.0832 16.75 5.33203 16.668 5.54258 16.5285C5.35664 16.2086 5.25 15.834 5.25 15.4375V10.8383C5.25 10.6031 5.28828 10.3707 5.36211 10.1465L5.66289 9.24141ZM9.49648 12.5035L10.809 13.816C10.9785 13.9855 10.9785 14.2645 10.809 14.434C10.6395 14.6035 10.3605 14.6035 10.191 14.434L8.87852 13.1215C8.70898 12.952 8.70898 12.673 8.87852 12.5035C9.04805 12.334 9.32695 12.334 9.49648 12.5035ZM1.44102 13.816L2.75352 12.5035C2.92305 12.334 3.20195 12.334 3.37148 12.5035C3.54102 12.673 3.54102 12.952 3.37148 13.1215L2.05898 14.434C1.88945 14.6035 1.61055 14.6035 1.44102 14.434C1.27148 14.2645 1.27148 13.9855 1.44102 13.816Z" fill="#FF7A00"/>
</svg>
