<svg width="13" height="20" viewBox="0 0 13 20" fill="none" xmlns="http://www.w3.org/2000/svg">
<path d="M4.35586 2.89786C4.56914 2.69825 4.9 2.70098 5.11328 2.90059C5.86797 3.6088 6.57617 4.37169 7.23789 5.19747C7.53867 4.80372 7.88047 4.37442 8.24961 4.02442C8.46563 3.82208 8.79922 3.82208 9.01523 4.02716C9.96133 4.9295 10.7625 6.12169 11.3258 7.25372C11.8809 8.36934 12.25 9.50958 12.25 10.3135C12.25 13.8025 9.52109 16.7502 6.125 16.7502C2.69062 16.7502 0 13.7998 0 10.3107C0 9.26075 0.486719 7.97833 1.24141 6.70958C2.0043 5.42169 3.08164 4.07911 4.35586 2.89786ZM6.17148 14.1252C6.86328 14.1252 7.47578 13.9338 8.05273 13.551C9.20391 12.7471 9.51289 11.1393 8.82109 9.87598C8.69805 9.62989 8.38359 9.61348 8.20586 9.8213L7.5168 10.6225C7.33633 10.8303 7.01094 10.8248 6.84141 10.6088C6.39023 10.0346 5.58359 9.00919 5.12422 8.42676C4.95195 8.20801 4.62383 8.20528 4.44883 8.42403C3.52461 9.58614 3.05977 10.319 3.05977 11.142C3.0625 13.015 4.44609 14.1252 6.17148 14.1252Z" fill="#EF4444"/>
</svg>
