<svg width="16" height="20" viewBox="0 0 16 20" fill="none" xmlns="http://www.w3.org/2000/svg">
<path d="M15.75 20H0V0H15.75V20Z" stroke="#E5E7EB"/>
<g clip-path="url(#clip0_2340_1056)">
<path d="M7 3.625C6.51602 3.625 6.125 4.01602 6.125 4.5V4.56289V7.28633C6.125 7.43945 6.00195 7.5625 5.84883 7.5625C5.75039 7.5625 5.65742 7.51055 5.6082 7.42305L4.2957 5.12891C2.26953 6.12695 0.875 8.21328 0.875 10.625V12.375H14.875V10.5594C14.8504 8.175 13.4613 6.11875 11.4543 5.12891L10.1418 7.42305C10.0926 7.51055 9.99961 7.5625 9.90117 7.5625C9.74805 7.5625 9.625 7.43945 9.625 7.28633V4.56289V4.5C9.625 4.01602 9.23398 3.625 8.75 3.625H7ZM0.453906 13.25C0.202344 13.25 0 13.4523 0 13.7039C0 13.8324 0.0546875 13.9555 0.158594 14.0293C0.751953 14.4641 3.05703 15.875 7.875 15.875C12.693 15.875 14.998 14.4641 15.5914 14.0293C15.6953 13.9527 15.75 13.8324 15.75 13.7039C15.75 13.4523 15.5477 13.25 15.2961 13.25H0.453906Z" fill="#FF7A00"/>
</g>
<defs>
<clipPath id="clip0_2340_1056">
<path d="M0 2.75H15.75V16.75H0V2.75Z" fill="white"/>
</clipPath>
</defs>
</svg>
