<svg width="27" height="32" viewBox="0 0 27 32" fill="none" xmlns="http://www.w3.org/2000/svg">
<g opacity="0.8">
<path d="M27 32H0V0H27V32Z" stroke="#E5E7EB"/>
<g clip-path="url(#clip0_2340_171)">
<path d="M13.4998 4.5C9.71231 4.5 6.67949 6.225 4.47168 8.27812C2.27793 10.3125 0.810742 12.75 0.116992 14.4234C-0.0376953 14.7937 -0.0376953 15.2062 0.116992 15.5766C0.810742 17.25 2.27793 19.6875 4.47168 21.7219C6.67949 23.775 9.71231 25.5 13.4998 25.5C17.2873 25.5 20.3201 23.775 22.5279 21.7219C24.7217 19.6828 26.1889 17.25 26.8873 15.5766C27.042 15.2062 27.042 14.7937 26.8873 14.4234C26.1889 12.75 24.7217 10.3125 22.5279 8.27812C20.3201 6.225 17.2873 4.5 13.4998 4.5ZM6.7498 15C6.7498 13.2098 7.46096 11.4929 8.72683 10.227C9.9927 8.96116 11.7096 8.25 13.4998 8.25C15.29 8.25 17.0069 8.96116 18.2728 10.227C19.5386 11.4929 20.2498 13.2098 20.2498 15C20.2498 16.7902 19.5386 18.5071 18.2728 19.773C17.0069 21.0388 15.29 21.75 13.4998 21.75C11.7096 21.75 9.9927 21.0388 8.72683 19.773C7.46096 18.5071 6.7498 16.7902 6.7498 15ZM13.4998 12C13.4998 13.6547 12.1545 15 10.4998 15C10.167 15 9.84824 14.9437 9.54824 14.8453C9.29043 14.7609 8.99043 14.9203 8.99981 15.1922C9.01387 15.5156 9.06074 15.8391 9.14981 16.1625C9.79199 18.5625 12.2623 19.9875 14.6623 19.3453C17.0623 18.7031 18.4873 16.2328 17.8451 13.8328C17.3248 11.8875 15.6045 10.5797 13.692 10.5C13.4201 10.4906 13.2607 10.7859 13.3451 11.0484C13.4436 11.3484 13.4998 11.6672 13.4998 12Z" fill="white"/>
</g>
</g>
<defs>
<clipPath id="clip0_2340_171">
<path d="M0 3H27V27H0V3Z" fill="white"/>
</clipPath>
</defs>
</svg>
