<svg width="11" height="20" viewBox="0 0 11 20" fill="none" xmlns="http://www.w3.org/2000/svg">
<path d="M10.5 20H0V0H10.5V20Z" stroke="#E5E7EB"/>
<g clip-path="url(#clip0_2340_1071)">
<path d="M5.25 16.75C2.35156 16.75 0 14.3984 0 11.5C0 9.00625 3.56016 4.32773 4.55547 3.06992C4.71953 2.86484 4.96289 2.75 5.22539 2.75H5.27461C5.53711 2.75 5.78047 2.86484 5.94453 3.06992C6.93984 4.32773 10.5 9.00625 10.5 11.5C10.5 14.3984 8.14844 16.75 5.25 16.75ZM2.625 11.9375C2.625 11.6969 2.42812 11.5 2.1875 11.5C1.94687 11.5 1.75 11.6969 1.75 11.9375C1.75 13.6301 3.11992 15 4.8125 15C5.05312 15 5.25 14.8031 5.25 14.5625C5.25 14.3219 5.05312 14.125 4.8125 14.125C3.60391 14.125 2.625 13.1461 2.625 11.9375Z" fill="#06B6D4"/>
</g>
<defs>
<clipPath id="clip0_2340_1071">
<path d="M0 2.75H10.5V16.75H0V2.75Z" fill="white"/>
</clipPath>
</defs>
</svg>
