<svg width="14" height="20" viewBox="0 0 14 20" fill="none" xmlns="http://www.w3.org/2000/svg">
<path d="M14 20H0V0H14V20Z" stroke="#E5E7EB"/>
<g clip-path="url(#clip0_2340_681)">
<path d="M0 9.75C0 7.89348 0.737498 6.11301 2.05025 4.80025C3.36301 3.4875 5.14348 2.75 7 2.75C8.85652 2.75 10.637 3.4875 11.9497 4.80025C13.2625 6.11301 14 7.89348 14 9.75C14 11.6065 13.2625 13.387 11.9497 14.6997C10.637 16.0125 8.85652 16.75 7 16.75C5.14348 16.75 3.36301 16.0125 2.05025 14.6997C0.737498 13.387 0 11.6065 0 9.75ZM7.875 5.375C7.875 5.14294 7.78281 4.92038 7.61872 4.75628C7.45462 4.59219 7.23206 4.5 7 4.5C6.76794 4.5 6.54538 4.59219 6.38128 4.75628C6.21719 4.92038 6.125 5.14294 6.125 5.375C6.125 5.60706 6.21719 5.82962 6.38128 5.99372C6.54538 6.15781 6.76794 6.25 7 6.25C7.23206 6.25 7.45462 6.15781 7.61872 5.99372C7.78281 5.82962 7.875 5.60706 7.875 5.375ZM7 14.125C7.96523 14.125 8.75 13.3402 8.75 12.375C8.75 11.8992 8.56133 11.4699 8.25508 11.1555L10.0078 7.17148C10.1527 6.84062 10.0023 6.45234 9.67148 6.30742C9.34063 6.1625 8.95234 6.31289 8.80742 6.64375L7.05195 10.625C7.03555 10.625 7.01641 10.625 7 10.625C6.03477 10.625 5.25 11.4098 5.25 12.375C5.25 13.3402 6.03477 14.125 7 14.125ZM4.8125 6.6875C4.8125 6.45544 4.72031 6.23288 4.55622 6.06878C4.39212 5.90469 4.16956 5.8125 3.9375 5.8125C3.70544 5.8125 3.48288 5.90469 3.31878 6.06878C3.15469 6.23288 3.0625 6.45544 3.0625 6.6875C3.0625 6.91956 3.15469 7.14212 3.31878 7.30622C3.48288 7.47031 3.70544 7.5625 3.9375 7.5625C4.16956 7.5625 4.39212 7.47031 4.55622 7.30622C4.72031 7.14212 4.8125 6.91956 4.8125 6.6875ZM2.625 10.625C2.85706 10.625 3.07962 10.5328 3.24372 10.3687C3.40781 10.2046 3.5 9.98206 3.5 9.75C3.5 9.51794 3.40781 9.29538 3.24372 9.13128C3.07962 8.96719 2.85706 8.875 2.625 8.875C2.39294 8.875 2.17038 8.96719 2.00628 9.13128C1.84219 9.29538 1.75 9.51794 1.75 9.75C1.75 9.98206 1.84219 10.2046 2.00628 10.3687C2.17038 10.5328 2.39294 10.625 2.625 10.625ZM12.25 9.75C12.25 9.51794 12.1578 9.29538 11.9937 9.13128C11.8296 8.96719 11.6071 8.875 11.375 8.875C11.1429 8.875 10.9204 8.96719 10.7563 9.13128C10.5922 9.29538 10.5 9.51794 10.5 9.75C10.5 9.98206 10.5922 10.2046 10.7563 10.3687C10.9204 10.5328 11.1429 10.625 11.375 10.625C11.6071 10.625 11.8296 10.5328 11.9937 10.3687C12.1578 10.2046 12.25 9.98206 12.25 9.75Z" fill="#FF7A00"/>
</g>
<defs>
<clipPath id="clip0_2340_681">
<path d="M0 2.75H14V16.75H0V2.75Z" fill="white"/>
</clipPath>
</defs>
</svg>
