<svg width="36" height="20" viewBox="0 0 36 20" fill="none" xmlns="http://www.w3.org/2000/svg">
<path d="M35.1406 20H0V0H35.1406V20Z" stroke="#E5E7EB"/>
<g clip-path="url(#clip0_2340_1150)">
<path d="M23.4305 10.3681C23.7723 10.0263 23.7723 9.47119 23.4305 9.1294L19.0555 4.75439C18.7137 4.4126 18.1586 4.4126 17.8168 4.75439C17.475 5.09619 17.475 5.65127 17.8168 5.99307L20.7016 8.8751H12.3125C11.8285 8.8751 11.4375 9.26611 11.4375 9.7501C11.4375 10.2341 11.8285 10.6251 12.3125 10.6251H20.6988L17.8195 13.5071C17.4777 13.8489 17.4777 14.404 17.8195 14.7458C18.1613 15.0876 18.7164 15.0876 19.0582 14.7458L23.4332 10.3708L23.4305 10.3681Z" fill="#10B981"/>
</g>
<defs>
<clipPath id="clip0_2340_1150">
<path d="M11.4375 2.75H23.6875V16.75H11.4375V2.75Z" fill="white"/>
</clipPath>
</defs>
</svg>
