<svg width="14" height="20" viewBox="0 0 14 20" fill="none" xmlns="http://www.w3.org/2000/svg">
<path d="M14 20H0V0H14V20Z" stroke="#E5E7EB"/>
<path d="M14 16.75H0V2.75H14V16.75Z" stroke="#E5E7EB"/>
<path d="M6.99997 3.625C7.38825 3.625 7.74645 3.83008 7.94333 4.16641L13.8496 14.2289C14.0492 14.568 14.0492 14.9863 13.855 15.3254C13.6609 15.6645 13.2972 15.875 12.9062 15.875H1.09372C0.702702 15.875 0.33903 15.6645 0.144889 15.3254C-0.0492514 14.9863 -0.0465171 14.5652 0.150358 14.2289L6.05661 4.16641C6.25348 3.83008 6.61169 3.625 6.99997 3.625ZM6.99997 7.125C6.6363 7.125 6.34372 7.41758 6.34372 7.78125V10.8438C6.34372 11.2074 6.6363 11.5 6.99997 11.5C7.36364 11.5 7.65622 11.2074 7.65622 10.8438V7.78125C7.65622 7.41758 7.36364 7.125 6.99997 7.125ZM7.87497 13.25C7.87497 13.0179 7.78278 12.7954 7.61869 12.6313C7.45459 12.4672 7.23203 12.375 6.99997 12.375C6.7679 12.375 6.54534 12.4672 6.38125 12.6313C6.21715 12.7954 6.12497 13.0179 6.12497 13.25C6.12497 13.4821 6.21715 13.7046 6.38125 13.8687C6.54534 14.0328 6.7679 14.125 6.99997 14.125C7.23203 14.125 7.45459 14.0328 7.61869 13.8687C7.78278 13.7046 7.87497 13.4821 7.87497 13.25Z" fill="#EF4444"/>
</svg>
