<svg width="35" height="20" viewBox="0 0 35 20" fill="none" xmlns="http://www.w3.org/2000/svg">
<path d="M34.75 20H0V0H34.75V20Z" stroke="#E5E7EB"/>
<g clip-path="url(#clip0_2340_1153)">
<path d="M11.5068 9.13213C11.165 9.47393 11.165 10.029 11.5068 10.3708L15.8818 14.7458C16.2236 15.0876 16.7787 15.0876 17.1205 14.7458C17.4623 14.404 17.4623 13.8489 17.1205 13.5071L14.2357 10.6251H22.6248C23.1088 10.6251 23.4998 10.2341 23.4998 9.7501C23.4998 9.26611 23.1088 8.8751 22.6248 8.8751H14.2385L17.1178 5.99307C17.4596 5.65127 17.4596 5.09619 17.1178 4.75439C16.776 4.4126 16.2209 4.4126 15.8791 4.75439L11.5041 9.1294L11.5068 9.13213Z" fill="#EF4444"/>
</g>
<defs>
<clipPath id="clip0_2340_1153">
<path d="M11.25 2.75H23.5V16.75H11.25V2.75Z" fill="white"/>
</clipPath>
</defs>
</svg>
