<svg width="14" height="20" viewBox="0 0 14 20" fill="none" xmlns="http://www.w3.org/2000/svg">
<path d="M14 20H0V0H14V20Z" stroke="#E5E7EB"/>
<path d="M14 16.75H0V2.75H14V16.75Z" stroke="#E5E7EB"/>
<path d="M3.69687 5.96016L2.9832 8H11.0168L10.3031 5.96016C10.1801 5.61016 9.84922 5.375 9.47734 5.375H4.52266C4.15078 5.375 3.81992 5.61016 3.69687 5.96016ZM1.08281 8.13125L2.04531 5.3832C2.41445 4.33047 3.40703 3.625 4.52266 3.625H9.47734C10.593 3.625 11.5855 4.33047 11.9547 5.3832L12.9172 8.13125C13.5516 8.39375 14 9.01992 14 9.75V13.6875V15C14 15.484 13.609 15.875 13.125 15.875H12.25C11.766 15.875 11.375 15.484 11.375 15V13.6875H2.625V15C2.625 15.484 2.23398 15.875 1.75 15.875H0.875C0.391016 15.875 0 15.484 0 15V13.6875V9.75C0 9.01992 0.448437 8.39375 1.08281 8.13125ZM3.5 10.625C3.5 10.3929 3.40781 10.1704 3.24372 10.0063C3.07962 9.84219 2.85706 9.75 2.625 9.75C2.39294 9.75 2.17038 9.84219 2.00628 10.0063C1.84219 10.1704 1.75 10.3929 1.75 10.625C1.75 10.8571 1.84219 11.0796 2.00628 11.2437C2.17038 11.4078 2.39294 11.5 2.625 11.5C2.85706 11.5 3.07962 11.4078 3.24372 11.2437C3.40781 11.0796 3.5 10.8571 3.5 10.625ZM11.375 11.5C11.6071 11.5 11.8296 11.4078 11.9937 11.2437C12.1578 11.0796 12.25 10.8571 12.25 10.625C12.25 10.3929 12.1578 10.1704 11.9937 10.0063C11.8296 9.84219 11.6071 9.75 11.375 9.75C11.1429 9.75 10.9204 9.84219 10.7563 10.0063C10.5922 10.1704 10.5 10.3929 10.5 10.625C10.5 10.8571 10.5922 11.0796 10.7563 11.2437C10.9204 11.4078 11.1429 11.5 11.375 11.5Z" fill="#0075FF"/>
</svg>
