<svg width="18" height="20" viewBox="0 0 18 20" fill="none" xmlns="http://www.w3.org/2000/svg">
<path d="M15.8538 10.0698C17.3987 8.52485 17.3987 6.0229 15.8538 4.47797C14.4866 3.11079 12.3319 2.93305 10.7597 4.05688L10.7159 4.08696C10.3222 4.3686 10.2319 4.91547 10.5136 5.30649C10.7952 5.6975 11.3421 5.79047 11.7331 5.50883L11.7769 5.47875C12.6546 4.85258 13.855 4.95102 14.6151 5.71391C15.4765 6.57524 15.4765 7.96977 14.6151 8.8311L11.5472 11.9045C10.6858 12.7659 9.29131 12.7659 8.42998 11.9045C7.66709 11.1416 7.56865 9.94126 8.19482 9.06626L8.2249 9.0225C8.50654 8.62875 8.41357 8.08188 8.02256 7.80297C7.63154 7.52407 7.08193 7.6143 6.80303 8.00532L6.77295 8.04907C5.64639 9.6186 5.82412 11.7733 7.19131 13.1405C8.73623 14.6854 11.2382 14.6854 12.7831 13.1405L15.8538 10.0698ZM1.646 9.42993C0.101074 10.9748 0.101074 13.4768 1.646 15.0217C3.01318 16.3889 5.16787 16.5666 6.74014 15.4428L6.78389 15.4127C7.17764 15.1311 7.26787 14.5842 6.98623 14.1932C6.70459 13.8022 6.15771 13.7092 5.7667 13.9909L5.72295 14.0209C4.84521 14.6471 3.64482 14.5487 2.88467 13.7858C2.02334 12.9217 2.02334 11.5272 2.88467 10.6659L5.95264 7.59516C6.81396 6.73383 8.2085 6.73383 9.06982 7.59516C9.83272 8.35805 9.93115 9.55844 9.30498 10.4362L9.2749 10.4799C8.99326 10.8737 9.08623 11.4206 9.47725 11.6995C9.86826 11.9784 10.4179 11.8881 10.6968 11.4971L10.7269 11.4534C11.8534 9.8811 11.6757 7.72641 10.3085 6.35922C8.76357 4.8143 6.26162 4.8143 4.7167 6.35922L1.646 9.42993Z" fill="#FF7A00"/>
</svg>
