<svg width="128" height="128" viewBox="0 0 128 128" fill="none" xmlns="http://www.w3.org/2000/svg">
<path d="M128 128H0V0H128V128Z" stroke="#E5E7EB"/>
<path d="M63.9999 121.6C95.8115 121.6 121.6 95.8115 121.6 63.9999C121.6 32.1883 95.8115 6.3999 63.9999 6.3999C32.1883 6.3999 6.3999 32.1883 6.3999 63.9999C6.3999 95.8115 32.1883 121.6 63.9999 121.6Z" stroke="white" stroke-opacity="0.2" stroke-width="10.24"/>
<path d="M63.9999 121.6C95.8115 121.6 121.6 95.8115 121.6 63.9999C121.6 32.1883 95.8115 6.3999 63.9999 6.3999C32.1883 6.3999 6.3999 32.1883 6.3999 63.9999C6.3999 95.8115 32.1883 121.6 63.9999 121.6Z" stroke="#8B5CF6" stroke-width="10.24" stroke-linecap="round" stroke-dasharray="321.54 321.54"/>
</svg>
